<svg width="96" height="16" viewBox="0 0 96 16" fill="none" xmlns="http://www.w3.org/2000/svg">
<path d="M14.6431 7.17741L11.8306 9.60429L12.6875 13.2337C12.7347 13.4307 12.7226 13.6373 12.6525 13.8274C12.5824 14.0175 12.4575 14.1826 12.2937 14.3018C12.1298 14.4209 11.9343 14.4889 11.7319 14.497C11.5294 14.5051 11.3291 14.4531 11.1562 14.3474L7.99996 12.4049L4.84184 14.3474C4.66898 14.4525 4.4689 14.504 4.2668 14.4956C4.06469 14.4872 3.8696 14.4191 3.70609 14.3001C3.54257 14.181 3.41795 14.0162 3.3479 13.8264C3.27786 13.6367 3.26553 13.4304 3.31246 13.2337L4.17246 9.60429L1.35996 7.17741C1.20702 7.04523 1.09641 6.87092 1.04195 6.67626C0.987486 6.48159 0.99158 6.27519 1.05372 6.08283C1.11586 5.89048 1.23329 5.72069 1.39135 5.59468C1.54941 5.46867 1.7411 5.39201 1.94246 5.37429L5.62996 5.07679L7.05246 1.63429C7.12946 1.44667 7.2605 1.28619 7.42894 1.17325C7.59738 1.06031 7.7956 1 7.9984 1C8.2012 1 8.39942 1.06031 8.56785 1.17325C8.73629 1.28619 8.86734 1.44667 8.94434 1.63429L10.3662 5.07679L14.0537 5.37429C14.2555 5.39135 14.4477 5.46758 14.6064 5.59342C14.765 5.71926 14.883 5.88911 14.9455 6.0817C15.008 6.27429 15.0123 6.48105 14.9579 6.67607C14.9034 6.87109 14.7926 7.04571 14.6393 7.17804L14.6431 7.17741Z" fill="#FACF21"/>
<path d="M34.6431 7.17741L31.8306 9.60429L32.6875 13.2337C32.7347 13.4307 32.7226 13.6373 32.6525 13.8274C32.5824 14.0175 32.4575 14.1826 32.2937 14.3018C32.1298 14.4209 31.9343 14.4889 31.7319 14.497C31.5294 14.5051 31.3291 14.4531 31.1562 14.3474L28 12.4049L24.8418 14.3474C24.669 14.4525 24.4689 14.504 24.2668 14.4956C24.0647 14.4872 23.8696 14.4191 23.7061 14.3001C23.5426 14.181 23.4179 14.0162 23.3479 13.8264C23.2779 13.6367 23.2655 13.4304 23.3125 13.2337L24.1725 9.60429L21.36 7.17741C21.207 7.04523 21.0964 6.87092 21.042 6.67626C20.9875 6.48159 20.9916 6.27519 21.0537 6.08283C21.1159 5.89048 21.2333 5.72069 21.3914 5.59468C21.5494 5.46867 21.7411 5.39201 21.9425 5.37429L25.63 5.07679L27.0525 1.63429C27.1295 1.44667 27.2605 1.28619 27.4289 1.17325C27.5974 1.06031 27.7956 1 27.9984 1C28.2012 1 28.3994 1.06031 28.5679 1.17325C28.7363 1.28619 28.8673 1.44667 28.9443 1.63429L30.3662 5.07679L34.0537 5.37429C34.2555 5.39135 34.4477 5.46758 34.6064 5.59342C34.765 5.71926 34.883 5.88911 34.9455 6.0817C35.008 6.27429 35.0123 6.48105 34.9579 6.67607C34.9034 6.87109 34.7926 7.04571 34.6393 7.17804L34.6431 7.17741Z" fill="#FACF21"/>
<path d="M54.6431 7.17741L51.8306 9.60429L52.6875 13.2337C52.7347 13.4307 52.7226 13.6373 52.6525 13.8274C52.5824 14.0175 52.4575 14.1826 52.2937 14.3018C52.1298 14.4209 51.9343 14.4889 51.7319 14.497C51.5294 14.5051 51.3291 14.4531 51.1562 14.3474L48 12.4049L44.8418 14.3474C44.669 14.4525 44.4689 14.504 44.2668 14.4956C44.0647 14.4872 43.8696 14.4191 43.7061 14.3001C43.5426 14.181 43.4179 14.0162 43.3479 13.8264C43.2779 13.6367 43.2655 13.4304 43.3125 13.2337L44.1725 9.60429L41.36 7.17741C41.207 7.04523 41.0964 6.87092 41.042 6.67626C40.9875 6.48159 40.9916 6.27519 41.0537 6.08283C41.1159 5.89048 41.2333 5.72069 41.3914 5.59468C41.5494 5.46867 41.7411 5.39201 41.9425 5.37429L45.63 5.07679L47.0525 1.63429C47.1295 1.44667 47.2605 1.28619 47.4289 1.17325C47.5974 1.06031 47.7956 1 47.9984 1C48.2012 1 48.3994 1.06031 48.5679 1.17325C48.7363 1.28619 48.8673 1.44667 48.9443 1.63429L50.3662 5.07679L54.0537 5.37429C54.2555 5.39135 54.4477 5.46758 54.6064 5.59342C54.765 5.71926 54.883 5.88911 54.9455 6.0817C55.008 6.27429 55.0123 6.48105 54.9579 6.67607C54.9034 6.87109 54.7926 7.04571 54.6393 7.17804L54.6431 7.17741Z" fill="#FACF21"/>
<path d="M74.6431 7.17741L71.8306 9.60429L72.6875 13.2337C72.7347 13.4307 72.7226 13.6373 72.6525 13.8274C72.5824 14.0175 72.4575 14.1826 72.2937 14.3018C72.1298 14.4209 71.9343 14.4889 71.7319 14.497C71.5294 14.5051 71.3291 14.4531 71.1562 14.3474L68 12.4049L64.8418 14.3474C64.669 14.4525 64.4689 14.504 64.2668 14.4956C64.0647 14.4872 63.8696 14.4191 63.7061 14.3001C63.5426 14.181 63.4179 14.0162 63.3479 13.8264C63.2779 13.6367 63.2655 13.4304 63.3125 13.2337L64.1725 9.60429L61.36 7.17741C61.207 7.04523 61.0964 6.87092 61.042 6.67626C60.9875 6.48159 60.9916 6.27519 61.0537 6.08283C61.1159 5.89048 61.2333 5.72069 61.3914 5.59468C61.5494 5.46867 61.7411 5.39201 61.9425 5.37429L65.63 5.07679L67.0525 1.63429C67.1295 1.44667 67.2605 1.28619 67.4289 1.17325C67.5974 1.06031 67.7956 1 67.9984 1C68.2012 1 68.3994 1.06031 68.5679 1.17325C68.7363 1.28619 68.8673 1.44667 68.9443 1.63429L70.3662 5.07679L74.0537 5.37429C74.2555 5.39135 74.4477 5.46758 74.6064 5.59342C74.765 5.71926 74.883 5.88911 74.9455 6.0817C75.008 6.27429 75.0123 6.48105 74.9579 6.67607C74.9034 6.87109 74.7926 7.04571 74.6393 7.17804L74.6431 7.17741Z" fill="#FACF21"/>
<path d="M94.6431 7.17741L91.8306 9.60429L92.6875 13.2337C92.7347 13.4307 92.7226 13.6373 92.6525 13.8274C92.5824 14.0175 92.4575 14.1826 92.2937 14.3018C92.1298 14.4209 91.9343 14.4889 91.7319 14.497C91.5294 14.5051 91.3291 14.4531 91.1562 14.3474L88 12.4049L84.8418 14.3474C84.669 14.4525 84.4689 14.504 84.2668 14.4956C84.0647 14.4872 83.8696 14.4191 83.7061 14.3001C83.5426 14.181 83.4179 14.0162 83.3479 13.8264C83.2779 13.6367 83.2655 13.4304 83.3125 13.2337L84.1725 9.60429L81.36 7.17741C81.207 7.04523 81.0964 6.87092 81.042 6.67626C80.9875 6.48159 80.9916 6.27519 81.0537 6.08283C81.1159 5.89048 81.2333 5.72069 81.3914 5.59468C81.5494 5.46867 81.7411 5.39201 81.9425 5.37429L85.63 5.07679L87.0525 1.63429C87.1295 1.44667 87.2605 1.28619 87.4289 1.17325C87.5974 1.06031 87.7956 1 87.9984 1C88.2012 1 88.3994 1.06031 88.5679 1.17325C88.7363 1.28619 88.8673 1.44667 88.9443 1.63429L90.3662 5.07679L94.0537 5.37429C94.2555 5.39135 94.4477 5.46758 94.6064 5.59342C94.765 5.71926 94.883 5.88911 94.9455 6.0817C95.008 6.27429 95.0123 6.48105 94.9579 6.67607C94.9034 6.87109 94.7926 7.04571 94.6393 7.17804L94.6431 7.17741Z" fill="#FACF21"/>
</svg>
