<svg width="16" height="24" viewBox="0 0 16 24" fill="none" xmlns="http://www.w3.org/2000/svg">
<path d="M8 0.9375C5.9375 0.9375 4.01047 2.67094 2.68883 4.80586C1.52305 6.68906 0.846641 9.06314 1.6325 11.1466L0.40625 11.7598V21.3281H2.09375V12.8027L3.94231 11.8784L3.47356 11.0971C2.57834 9.60516 3.00781 7.49662 4.12367 5.69414C5.23953 3.89156 7.0625 2.625 8 2.625C8.9375 2.625 10.7605 3.89156 11.8763 5.69414C12.9922 7.49672 13.4217 9.60516 12.5265 11.0971L12.0577 11.8784L13.9062 12.8027V21.3281H15.5938V11.7598L14.3675 11.1466C15.1534 9.06314 14.4769 6.68906 13.3112 4.80586C11.9895 2.67094 10.0625 0.9375 8 0.9375ZM8.42188 3.48919V23.0625H13.1562V13.2664L10.9792 12.1777C11.5427 11.2767 12.2975 10.3476 12.2606 9.23025C12.1499 6.91495 10.6834 4.78017 8.69698 3.61378C8.60919 3.56897 8.51684 3.52547 8.42188 3.48919ZM7.57812 3.50719C6.40967 3.95198 5.5678 4.98572 4.84227 5.96625C4.02917 7.20019 3.4993 8.73431 3.88719 10.2073C4.07975 10.8122 4.397 11.2747 4.69963 11.9175C4.86012 12.2165 4.81405 12.1363 3.67395 12.8512L2.84375 13.2664V23.0625H7.57812V3.50719ZM3.82812 16.7812H4.67188C4.67188 17.0508 4.75784 17.1995 4.88183 17.3097C5.00577 17.4199 5.1875 17.4844 5.375 17.4844C5.5625 17.4844 5.74423 17.4199 5.86817 17.3097C5.99211 17.1995 6.07812 17.0508 6.07812 16.7812H6.92188C6.92188 17.2617 6.72659 17.6755 6.4287 17.9403C6.13081 18.2052 5.75 18.3281 5.375 18.3281C5 18.3281 4.61923 18.2051 4.3213 17.9403C4.02341 17.6755 3.82812 17.2617 3.82812 16.7812ZM9.07812 16.7812H9.92188C9.92188 17.0508 10.0078 17.1995 10.1318 17.3097C10.2558 17.4199 10.4375 17.4844 10.625 17.4844C10.8125 17.4844 10.9942 17.4199 11.1182 17.3097C11.2421 17.1995 11.3281 17.0508 11.3281 16.7812H12.1719C12.1719 17.2617 11.9766 17.6755 11.6787 17.9403C11.3808 18.2052 11 18.3281 10.625 18.3281C10.25 18.3281 9.86923 18.2051 9.5713 17.9403C9.27341 17.6755 9.07812 17.2617 9.07812 16.7812ZM0.40625 22.1719V23.0625H2.09375V22.1719H0.40625ZM13.9062 22.1719V23.0625H15.5938V22.1719H13.9062Z" fill="url(#paint0_linear_732_13375)"/>
<defs>
<linearGradient id="paint0_linear_732_13375" x1="8.5" y1="1" x2="8" y2="27.5" gradientUnits="userSpaceOnUse">
<stop stop-color="#673ACE"/>
<stop offset="1" stop-color="#45FFBE"/>
</linearGradient>
</defs>
</svg>
