<svg width="12" height="7" viewBox="0 0 12 7" fill="none" xmlns="http://www.w3.org/2000/svg">
<path d="M11.354 1.47195L6.35403 6.47195C6.30759 6.51844 6.25245 6.55532 6.19175 6.58048C6.13105 6.60564 6.06599 6.61859 6.00028 6.61859C5.93457 6.61859 5.86951 6.60564 5.80881 6.58048C5.74811 6.55532 5.69296 6.51844 5.64653 6.47195L0.646528 1.47195C0.552708 1.37813 0.5 1.25088 0.5 1.1182C0.5 0.985516 0.552708 0.858268 0.646528 0.764448C0.740348 0.670627 0.867596 0.61792 1.00028 0.61792C1.13296 0.61792 1.26021 0.670627 1.35403 0.764448L6.00028 5.41132L10.6465 0.764448C10.693 0.717993 10.7481 0.681142 10.8088 0.656001C10.8695 0.63086 10.9346 0.61792 11.0003 0.61792C11.066 0.61792 11.131 0.63086 11.1917 0.656001C11.2524 0.681142 11.3076 0.717993 11.354 0.764448C11.4005 0.810903 11.4373 0.866053 11.4625 0.92675C11.4876 0.987446 11.5006 1.0525 11.5006 1.1182C11.5006 1.1839 11.4876 1.24895 11.4625 1.30965C11.4373 1.37034 11.4005 1.42549 11.354 1.47195Z" fill="#121111"/>
</svg>
