<svg width="17" height="17" viewBox="0 0 17 17" fill="none" xmlns="http://www.w3.org/2000/svg">
<path d="M6.35403 3.2645L11.354 8.2645C11.4005 8.31094 11.4374 8.36608 11.4626 8.42678C11.4877 8.48748 11.5007 8.55254 11.5007 8.61825C11.5007 8.68396 11.4877 8.74902 11.4626 8.80972C11.4374 8.87042 11.4005 8.92557 11.354 8.972L6.35403 13.972C6.26021 14.0658 6.13296 14.1185 6.00028 14.1185C5.8676 14.1185 5.74035 14.0658 5.64653 13.972C5.55271 13.8782 5.5 13.7509 5.5 13.6183C5.5 13.4856 5.55271 13.3583 5.64653 13.2645L10.2934 8.61825L5.64653 3.972C5.60007 3.92555 5.56322 3.8704 5.53808 3.8097C5.51294 3.749 5.5 3.68395 5.5 3.61825C5.5 3.55255 5.51294 3.4875 5.53808 3.4268C5.56322 3.36611 5.60007 3.31096 5.64653 3.2645C5.69298 3.21805 5.74813 3.1812 5.80883 3.15606C5.86953 3.13091 5.93458 3.11797 6.00028 3.11797C6.06597 3.11797 6.13103 3.13091 6.19173 3.15606C6.25242 3.1812 6.30757 3.21805 6.35403 3.2645Z" fill="url(#paint0_linear_935_285)"/>
<defs>
<linearGradient id="paint0_linear_935_285" x1="6.29421" y1="14.1185" x2="9.08805" y2="3.82862" gradientUnits="userSpaceOnUse">
<stop stop-color="#DF186A"/>
<stop offset="1" stop-color="#FA6F21"/>
</linearGradient>
</defs>
</svg>
