<svg width="18" height="15" viewBox="0 0 18 15" fill="none" xmlns="http://www.w3.org/2000/svg">
<path d="M0.223465 6.96993L6.97346 0.219934C7.11419 0.0792027 7.30507 0.000141144 7.50409 0.000141144C7.70311 0.000141144 7.89398 0.0792027 8.03471 0.219934C8.17545 0.360664 8.25451 0.551536 8.25451 0.750559C8.25451 0.949582 8.17545 1.14045 8.03471 1.28118L2.5644 6.75056L17.2541 6.75056C17.453 6.75056 17.6438 6.82958 17.7844 6.97023C17.9251 7.11088 18.0041 7.30165 18.0041 7.50056C18.0041 7.69947 17.9251 7.89024 17.7844 8.03089C17.6438 8.17154 17.453 8.25056 17.2541 8.25056L2.5644 8.25056L8.03471 13.7199C8.17545 13.8607 8.25451 14.0515 8.25451 14.2506C8.25451 14.4496 8.17545 14.6405 8.03471 14.7812C7.89398 14.9219 7.70311 15.001 7.50409 15.001C7.30507 15.001 7.11419 14.9219 6.97346 14.7812L0.223465 8.03119C0.153732 7.96153 0.0984116 7.87881 0.0606689 7.78776C0.0229263 7.69672 0.00349998 7.59912 0.00349998 7.50056C0.00349998 7.402 0.0229263 7.3044 0.0606689 7.21335C0.0984116 7.12231 0.153732 7.03959 0.223465 6.96993Z" fill="#7B7B7B"/>
</svg>
