<svg width="14" height="9" viewBox="0 0 14 9" fill="none" xmlns="http://www.w3.org/2000/svg">
<path d="M0.305511 7.30795L6.55551 1.05795C6.61356 0.999843 6.68249 0.953743 6.75836 0.92229C6.83424 0.890838 6.91556 0.87465 6.9977 0.87465C7.07983 0.87465 7.16116 0.890838 7.23704 0.92229C7.31291 0.953743 7.38184 0.999843 7.43989 1.05795L13.6899 7.30795C13.8072 7.42523 13.873 7.58429 13.873 7.75014C13.873 7.91599 13.8072 8.07505 13.6899 8.19233C13.5726 8.3096 13.4136 8.37549 13.2477 8.37549C13.0818 8.37549 12.9228 8.3096 12.8055 8.19233L6.9977 2.38373L1.18989 8.19233C1.13182 8.2504 1.06288 8.29646 0.987009 8.32789C0.911139 8.35931 0.829821 8.37549 0.747699 8.37549C0.665577 8.37549 0.584259 8.35931 0.508389 8.32789C0.432518 8.29646 0.36358 8.2504 0.305511 8.19233C0.247442 8.13426 0.20138 8.06532 0.169953 7.98945C0.138527 7.91358 0.122351 7.83226 0.122351 7.75014C0.122351 7.66802 0.138527 7.5867 0.169953 7.51083C0.20138 7.43496 0.247442 7.36602 0.305511 7.30795Z" fill="#121111"/>
</svg>
