<svg width="24" height="25" viewBox="0 0 24 25" fill="none" xmlns="http://www.w3.org/2000/svg">
<path d="M19.5 2.75H6.75C5.95435 2.75 5.19129 3.06607 4.62868 3.62868C4.06607 4.19129 3.75 4.95435 3.75 5.75V21.5C3.75 21.6989 3.82902 21.8897 3.96967 22.0303C4.11032 22.171 4.30109 22.25 4.5 22.25H18C18.1989 22.25 18.3897 22.171 18.5303 22.0303C18.671 21.8897 18.75 21.6989 18.75 21.5C18.75 21.3011 18.671 21.1103 18.5303 20.9697C18.3897 20.829 18.1989 20.75 18 20.75H5.25C5.25 20.3522 5.40804 19.9706 5.68934 19.6893C5.97064 19.408 6.35218 19.25 6.75 19.25H19.5C19.6989 19.25 19.8897 19.171 20.0303 19.0303C20.171 18.8897 20.25 18.6989 20.25 18.5V3.5C20.25 3.30109 20.171 3.11032 20.0303 2.96967C19.8897 2.82902 19.6989 2.75 19.5 2.75ZM17.25 11.75L14.8491 9.95C14.7842 9.90132 14.7052 9.875 14.6241 9.875C14.5429 9.875 14.464 9.90132 14.3991 9.95L12 11.75V4.25H17.25V11.75Z" fill="url(#paint0_linear_732_12488)"/>
<defs>
<linearGradient id="paint0_linear_732_12488" x1="26" y1="1" x2="2.5" y2="35" gradientUnits="userSpaceOnUse">
<stop stop-color="#DF625D"/>
<stop offset="1" stop-color="#87276A"/>
</linearGradient>
</defs>
</svg>
