<svg width="18" height="20" viewBox="0 0 18 20" fill="none" xmlns="http://www.w3.org/2000/svg">
<path d="M16.5 2H14.25V1.25C14.25 1.05109 14.171 0.860322 14.0303 0.71967C13.8897 0.579018 13.6989 0.5 13.5 0.5C13.3011 0.5 13.1103 0.579018 12.9697 0.71967C12.829 0.860322 12.75 1.05109 12.75 1.25V2H5.25V1.25C5.25 1.05109 5.17098 0.860322 5.03033 0.71967C4.88968 0.579018 4.69891 0.5 4.5 0.5C4.30109 0.5 4.11032 0.579018 3.96967 0.71967C3.82902 0.860322 3.75 1.05109 3.75 1.25V2H1.5C1.10218 2 0.720644 2.15804 0.43934 2.43934C0.158035 2.72064 0 3.10218 0 3.5V18.5C0 18.8978 0.158035 19.2794 0.43934 19.5607C0.720644 19.842 1.10218 20 1.5 20H16.5C16.8978 20 17.2794 19.842 17.5607 19.5607C17.842 19.2794 18 18.8978 18 18.5V3.5C18 3.10218 17.842 2.72064 17.5607 2.43934C17.2794 2.15804 16.8978 2 16.5 2ZM4.875 16.25C4.6525 16.25 4.43499 16.184 4.24998 16.0604C4.06498 15.9368 3.92078 15.7611 3.83564 15.5555C3.75049 15.35 3.72821 15.1238 3.77162 14.9055C3.81502 14.6873 3.92217 14.4868 4.0795 14.3295C4.23684 14.1722 4.43729 14.065 4.65552 14.0216C4.87375 13.9782 5.09995 14.0005 5.30552 14.0856C5.51109 14.1708 5.68679 14.315 5.8104 14.5C5.93402 14.685 6 14.9025 6 15.125C6 15.4234 5.88147 15.7095 5.6705 15.9205C5.45952 16.1315 5.17337 16.25 4.875 16.25ZM9 16.25C8.7775 16.25 8.55999 16.184 8.37498 16.0604C8.18998 15.9368 8.04578 15.7611 7.96064 15.5555C7.87549 15.35 7.85321 15.1238 7.89662 14.9055C7.94002 14.6873 8.04717 14.4868 8.2045 14.3295C8.36184 14.1722 8.56229 14.065 8.78052 14.0216C8.99875 13.9782 9.22495 14.0005 9.43052 14.0856C9.63608 14.1708 9.81179 14.315 9.9354 14.5C10.059 14.685 10.125 14.9025 10.125 15.125C10.125 15.4234 10.0065 15.7095 9.79549 15.9205C9.58452 16.1315 9.29837 16.25 9 16.25ZM9 12.5C8.7775 12.5 8.55999 12.434 8.37498 12.3104C8.18998 12.1868 8.04578 12.0111 7.96064 11.8055C7.87549 11.6 7.85321 11.3738 7.89662 11.1555C7.94002 10.9373 8.04717 10.7368 8.2045 10.5795C8.36184 10.4222 8.56229 10.315 8.78052 10.2716C8.99875 10.2282 9.22495 10.2505 9.43052 10.3356C9.63608 10.4208 9.81179 10.565 9.9354 10.75C10.059 10.935 10.125 11.1525 10.125 11.375C10.125 11.6734 10.0065 11.9595 9.79549 12.1705C9.58452 12.3815 9.29837 12.5 9 12.5ZM13.125 16.25C12.9025 16.25 12.685 16.184 12.5 16.0604C12.315 15.9368 12.1708 15.7611 12.0856 15.5555C12.0005 15.35 11.9782 15.1238 12.0216 14.9055C12.065 14.6873 12.1722 14.4868 12.3295 14.3295C12.4868 14.1722 12.6873 14.065 12.9055 14.0216C13.1238 13.9782 13.35 14.0005 13.5555 14.0856C13.7611 14.1708 13.9368 14.315 14.0604 14.5C14.184 14.685 14.25 14.9025 14.25 15.125C14.25 15.4234 14.1315 15.7095 13.9205 15.9205C13.7095 16.1315 13.4234 16.25 13.125 16.25ZM13.125 12.5C12.9025 12.5 12.685 12.434 12.5 12.3104C12.315 12.1868 12.1708 12.0111 12.0856 11.8055C12.0005 11.6 11.9782 11.3738 12.0216 11.1555C12.065 10.9373 12.1722 10.7368 12.3295 10.5795C12.4868 10.4222 12.6873 10.315 12.9055 10.2716C13.1238 10.2282 13.35 10.2505 13.5555 10.3356C13.7611 10.4208 13.9368 10.565 14.0604 10.75C14.184 10.935 14.25 11.1525 14.25 11.375C14.25 11.6734 14.1315 11.9595 13.9205 12.1705C13.7095 12.3815 13.4234 12.5 13.125 12.5ZM16.5 6.5H1.5V3.5H3.75V4.25C3.75 4.44891 3.82902 4.63968 3.96967 4.78033C4.11032 4.92098 4.30109 5 4.5 5C4.69891 5 4.88968 4.92098 5.03033 4.78033C5.17098 4.63968 5.25 4.44891 5.25 4.25V3.5H12.75V4.25C12.75 4.44891 12.829 4.63968 12.9697 4.78033C13.1103 4.92098 13.3011 5 13.5 5C13.6989 5 13.8897 4.92098 14.0303 4.78033C14.171 4.63968 14.25 4.44891 14.25 4.25V3.5H16.5V6.5Z" fill="#F0F0F0"/>
</svg>
