<svg width="21" height="19" viewBox="0 0 21 19" fill="none" xmlns="http://www.w3.org/2000/svg">
<path d="M14.2498 15.1906C14.6809 15.0208 15.0988 14.8189 15.4998 14.5867V17.75C15.4998 17.9158 15.434 18.0748 15.3167 18.192C15.1995 18.3092 15.0406 18.375 14.8748 18.375C14.709 18.375 14.5501 18.3092 14.4329 18.192C14.3157 18.0748 14.2498 17.9158 14.2498 17.75V15.1906ZM15.1686 8.28205L10.7936 5.94846C10.6476 5.8739 10.4782 5.85967 10.3218 5.90882C10.1655 5.95798 10.0347 6.06659 9.95762 6.21126C9.88057 6.35593 9.86343 6.52507 9.9099 6.68225C9.95637 6.83943 10.0627 6.97207 10.2061 7.05158L13.8592 9.00002L15.1873 8.29221L15.1686 8.28205ZM20.1686 5.94846L10.7936 0.948456C10.7031 0.900305 10.6023 0.875122 10.4998 0.875122C10.3974 0.875122 10.2965 0.900305 10.2061 0.948456L0.831055 5.94846C0.731058 6.00175 0.64743 6.08122 0.589117 6.17838C0.530804 6.27553 0.5 6.38671 0.5 6.50002C0.5 6.61333 0.530804 6.72451 0.589117 6.82166C0.64743 6.91882 0.731058 6.99829 0.831055 7.05158L2.9998 8.20861V11.9914C2.99916 12.2984 3.11214 12.5948 3.31699 12.8235C4.34043 13.9633 6.6334 15.875 10.4998 15.875C11.7818 15.8856 13.0542 15.6534 14.2498 15.1906V9.20861L13.8592 9.00002L10.4998 10.7914L3.92402 7.28127L2.45293 6.50002L10.4998 2.20861L18.5467 6.50002L17.0795 7.28127H17.0748L15.1873 8.29221C15.2823 8.34707 15.3612 8.42599 15.4161 8.52103C15.471 8.61607 15.4998 8.72388 15.4998 8.83361V14.5867C16.3148 14.1163 17.0513 13.5213 17.6826 12.8235C17.8875 12.5948 18.0005 12.2984 17.9998 11.9914V8.20861L20.1686 7.05158C20.2686 6.99829 20.3522 6.91882 20.4105 6.82166C20.4688 6.72451 20.4996 6.61333 20.4996 6.50002C20.4996 6.38671 20.4688 6.27553 20.4105 6.17838C20.3522 6.08122 20.2686 6.00175 20.1686 5.94846Z" fill="#AFAFAF"/>
</svg>
