<svg width="43" height="37" viewBox="0 0 43 37" fill="none" xmlns="http://www.w3.org/2000/svg">
<path d="M39.5 9.22437V3.5C39.5 2.70435 39.1839 1.94129 38.6213 1.37868C38.0587 0.81607 37.2957 0.5 36.5 0.5H3.5C2.70435 0.5 1.94129 0.81607 1.37868 1.37868C0.81607 1.94129 0.5 2.70435 0.5 3.5V27.5C0.5 28.2956 0.81607 29.0587 1.37868 29.6213C1.94129 30.1839 2.70435 30.5 3.5 30.5H26V35C25.9976 35.2644 26.0652 35.5248 26.1959 35.7547C26.3266 35.9846 26.5157 36.1759 26.7441 36.3092C26.9726 36.4424 27.2322 36.5129 27.4966 36.5135C27.7611 36.5141 28.021 36.4447 28.25 36.3125L32.75 33.7362L37.25 36.3125C37.479 36.4447 37.7389 36.5141 38.0034 36.5135C38.2678 36.5129 38.5274 36.4424 38.7559 36.3092C38.9843 36.1759 39.1734 35.9846 39.3041 35.7547C39.4348 35.5248 39.5024 35.2644 39.5 35V23.2756C40.4482 22.3676 41.2028 21.277 41.7183 20.0696C42.2338 18.8622 42.4996 17.5629 42.4996 16.25C42.4996 14.9371 42.2338 13.6378 41.7183 12.4304C41.2028 11.223 40.4482 10.1324 39.5 9.22437ZM20 20H9.5C9.10218 20 8.72064 19.842 8.43934 19.5607C8.15804 19.2794 8 18.8978 8 18.5C8 18.1022 8.15804 17.7206 8.43934 17.4393C8.72064 17.158 9.10218 17 9.5 17H20C20.3978 17 20.7794 17.158 21.0607 17.4393C21.342 17.7206 21.5 18.1022 21.5 18.5C21.5 18.8978 21.342 19.2794 21.0607 19.5607C20.7794 19.842 20.3978 20 20 20ZM20 14H9.5C9.10218 14 8.72064 13.842 8.43934 13.5607C8.15804 13.2794 8 12.8978 8 12.5C8 12.1022 8.15804 11.7206 8.43934 11.4393C8.72064 11.158 9.10218 11 9.5 11H20C20.3978 11 20.7794 11.158 21.0607 11.4393C21.342 11.7206 21.5 12.1022 21.5 12.5C21.5 12.8978 21.342 13.2794 21.0607 13.5607C20.7794 13.842 20.3978 14 20 14ZM36.5 32.4144L33.5 30.6969C33.2733 30.5673 33.0167 30.4991 32.7556 30.4991C32.4945 30.4991 32.2379 30.5673 32.0112 30.6969L29.0112 32.4144V25.25C30.1992 25.7463 31.4738 26.0019 32.7612 26.0019C34.0487 26.0019 35.3233 25.7463 36.5112 25.25L36.5 32.4144ZM32.75 23C31.415 23 30.1099 22.6041 28.9999 21.8624C27.8899 21.1207 27.0247 20.0665 26.5138 18.8331C26.0029 17.5997 25.8692 16.2425 26.1297 14.9331C26.3901 13.6238 27.033 12.421 27.977 11.477C28.921 10.533 30.1238 9.89015 31.4331 9.6297C32.7425 9.36925 34.0997 9.50292 35.3331 10.0138C36.5665 10.5247 37.6207 11.3899 38.3624 12.4999C39.1041 13.6099 39.5 14.915 39.5 16.25C39.5 17.1364 39.3254 18.0142 38.9862 18.8331C38.647 19.6521 38.1498 20.3962 37.523 21.023C36.8962 21.6498 36.1521 22.147 35.3331 22.4862C34.5142 22.8254 33.6364 23 32.75 23Z" fill="url(#paint0_linear_816_16071)"/>
<defs>
<linearGradient id="paint0_linear_816_16071" x1="21.4993" y1="10.8407" x2="21.4993" y2="48.5385" gradientUnits="userSpaceOnUse">
<stop stop-color="#FF6A00"/>
<stop offset="1" stop-color="white"/>
</linearGradient>
</defs>
</svg>
