<svg width="39" height="38" viewBox="0 0 39 38" fill="none" xmlns="http://www.w3.org/2000/svg">
<rect x="0.714355" width="38" height="38" rx="8" fill="#221246"/>
<path d="M28.1242 16.8361C27.8002 16.4975 27.4651 16.1486 27.3387 15.8418C27.2219 15.5608 27.215 15.095 27.2081 14.6438C27.1952 13.8051 27.1815 12.8546 26.5206 12.1937C25.8597 11.5329 24.9093 11.5191 24.0705 11.5062C23.6194 11.4994 23.1536 11.4925 22.8726 11.3756C22.5666 11.2493 22.2169 10.9141 21.8783 10.5902C21.2853 10.0204 20.6115 9.375 19.7144 9.375C18.8172 9.375 18.1443 10.0204 17.5504 10.5902C17.2119 10.9141 16.8629 11.2493 16.5562 11.3756C16.2769 11.4925 15.8094 11.4994 15.3582 11.5062C14.5194 11.5191 13.569 11.5329 12.9081 12.1937C12.2472 12.8546 12.2378 13.8051 12.2206 14.6438C12.2137 15.095 12.2069 15.5608 12.09 15.8418C11.9637 16.1477 11.6285 16.4975 11.3045 16.8361C10.7347 17.4291 10.0894 18.1028 10.0894 19C10.0894 19.8972 10.7347 20.5701 11.3045 21.1639C11.6285 21.5025 11.9637 21.8514 12.09 22.1582C12.2069 22.4392 12.2137 22.905 12.2206 23.3562C12.2335 24.1949 12.2472 25.1454 12.9081 25.8062C13.569 26.4671 14.5194 26.4809 15.3582 26.4937C15.8094 26.5006 16.2751 26.5075 16.5562 26.6244C16.8621 26.7507 17.2119 27.0859 17.5504 27.4098C18.1434 27.9796 18.8172 28.625 19.7144 28.625C20.6115 28.625 21.2844 27.9796 21.8783 27.4098C22.2169 27.0859 22.5658 26.7507 22.8726 26.6244C23.1536 26.5075 23.6194 26.5006 24.0705 26.4937C24.9093 26.4809 25.8597 26.4671 26.5206 25.8062C27.1815 25.1454 27.1952 24.1949 27.2081 23.3562C27.215 22.905 27.2219 22.4392 27.3387 22.1582C27.4651 21.8523 27.8002 21.5025 28.1242 21.1639C28.694 20.5709 29.3394 19.8972 29.3394 19C29.3394 18.1028 28.694 17.4299 28.1242 16.8361ZM23.6383 17.4239L18.8258 22.2364C18.7619 22.3003 18.6861 22.351 18.6026 22.3856C18.5192 22.4202 18.4297 22.438 18.3394 22.438C18.249 22.438 18.1595 22.4202 18.0761 22.3856C17.9926 22.351 17.9168 22.3003 17.8529 22.2364L15.7904 20.1739C15.6614 20.0449 15.589 19.8699 15.589 19.6875C15.589 19.5051 15.6614 19.3301 15.7904 19.2011C15.9195 19.0721 16.0944 18.9996 16.2769 18.9996C16.4593 18.9996 16.6343 19.0721 16.7633 19.2011L18.3394 20.778L22.6654 16.4511C22.7293 16.3872 22.8052 16.3365 22.8886 16.302C22.9721 16.2674 23.0615 16.2496 23.1519 16.2496C23.2422 16.2496 23.3316 16.2674 23.4151 16.302C23.4986 16.3365 23.5744 16.3872 23.6383 16.4511C23.7021 16.515 23.7528 16.5908 23.7874 16.6743C23.8219 16.7577 23.8397 16.8472 23.8397 16.9375C23.8397 17.0278 23.8219 17.1173 23.7874 17.2007C23.7528 17.2842 23.7021 17.36 23.6383 17.4239Z" fill="url(#paint0_linear_816_6211)"/>
<defs>
<linearGradient id="paint0_linear_816_6211" x1="19.8572" y1="12.5" x2="19.8572" y2="34" gradientUnits="userSpaceOnUse">
<stop stop-color="#673ACE"/>
<stop offset="1" stop-color="white"/>
</linearGradient>
</defs>
</svg>
