<svg width="6" height="12" viewBox="0 0 6 12" fill="none" xmlns="http://www.w3.org/2000/svg">
<path d="M0.854028 0.264502L5.85403 5.2645C5.90052 5.31094 5.9374 5.36608 5.96256 5.42678C5.98772 5.48748 6.00067 5.55254 6.00067 5.61825C6.00067 5.68396 5.98772 5.74902 5.96256 5.80972C5.9374 5.87042 5.90052 5.92557 5.85403 5.972L0.854028 10.972C0.760208 11.0658 0.63296 11.1185 0.500278 11.1185C0.367596 11.1185 0.240348 11.0658 0.146528 10.972C0.0527074 10.8782 -1.60681e-08 10.7509 -2.18678e-08 10.6183C-2.76676e-08 10.4856 0.0527074 10.3583 0.146528 10.2645L4.7934 5.61825L0.146527 0.972002C0.100072 0.925547 0.063222 0.870397 0.0380807 0.8097C0.0129394 0.749003 -4.5611e-07 0.683949 -4.58982e-07 0.618252C-4.61853e-07 0.552554 0.0129394 0.4875 0.0380807 0.426804C0.063222 0.366107 0.100072 0.310957 0.146527 0.264502C0.192982 0.218046 0.248133 0.181197 0.308829 0.156055C0.369526 0.130914 0.43458 0.117973 0.500278 0.117973C0.565975 0.117973 0.631029 0.130914 0.691726 0.156055C0.752422 0.181197 0.807573 0.218046 0.854028 0.264502Z" fill="#121111"/>
</svg>
