<svg width="18" height="18" viewBox="0 0 18 18" fill="none" xmlns="http://www.w3.org/2000/svg">
<path d="M17.125 8.375H14.0383C14.4637 7.51745 14.6633 6.56551 14.6181 5.60929C14.5729 4.65306 14.2844 3.7242 13.7799 2.91063C13.2754 2.09706 12.5716 1.42571 11.7352 0.960115C10.8987 0.494525 9.95729 0.250107 9 0.25C8.83424 0.25 8.67527 0.315848 8.55806 0.433058C8.44085 0.550268 8.375 0.70924 8.375 0.875V3.96172C7.51745 3.53626 6.56551 3.33669 5.60929 3.38191C4.65306 3.42713 3.7242 3.71564 2.91063 4.22013C2.09706 4.72462 1.42571 5.4284 0.960115 6.26484C0.494525 7.10128 0.250107 8.04271 0.25 9C0.25 9.16576 0.315848 9.32473 0.433058 9.44194C0.550268 9.55915 0.70924 9.625 0.875 9.625H3.96172C3.53626 10.4825 3.33669 11.4345 3.38191 12.3907C3.42713 13.3469 3.71564 14.2758 4.22013 15.0894C4.72462 15.9029 5.4284 16.5743 6.26484 17.0399C7.10128 17.5055 8.04271 17.7499 9 17.75C9.16576 17.75 9.32473 17.6842 9.44194 17.5669C9.55915 17.4497 9.625 17.2908 9.625 17.125V14.0383C10.4825 14.4637 11.4345 14.6633 12.3907 14.6181C13.3469 14.5729 14.2758 14.2844 15.0894 13.7799C15.9029 13.2754 16.5743 12.5716 17.0399 11.7352C17.5055 10.8987 17.7499 9.95729 17.75 9C17.75 8.83424 17.6842 8.67527 17.5669 8.55806C17.4497 8.44085 17.2908 8.375 17.125 8.375ZM5.875 4.625C6.76909 4.6205 7.64256 4.89346 8.375 5.40625V8.375H1.54453C1.69622 7.3343 2.21713 6.38287 3.01216 5.69441C3.80719 5.00595 4.82331 4.62638 5.875 4.625ZM12.125 13.375C11.2309 13.3795 10.3574 13.1065 9.625 12.5938V9.625H16.4555C16.3038 10.6657 15.7829 11.6171 14.9878 12.3056C14.1928 12.9941 13.1767 13.3736 12.125 13.375Z" fill="#AFAFAF"/>
</svg>
