<svg width="20" height="20" viewBox="0 0 20 20" fill="none" xmlns="http://www.w3.org/2000/svg">
<path d="M19.7502 10.0002C19.7502 8.07178 19.1784 6.18668 18.1071 4.58327C17.0357 2.97986 15.513 1.73016 13.7314 0.992188C11.9498 0.25422 9.98933 0.0611373 8.098 0.437357C6.20666 0.813577 4.46936 1.7422 3.1058 3.1058C1.7422 4.46936 0.813577 6.20666 0.437357 8.098C0.0611373 9.98933 0.25422 11.9498 0.992188 13.7314C1.73016 15.513 2.97986 17.0357 4.58327 18.1071C6.18668 19.1784 8.07178 19.7502 10.0002 19.7502H10.0086C12.593 19.7479 15.0708 18.7197 16.8974 16.8915C18.7241 15.0632 19.7502 12.5846 19.7502 10.0002ZM2.6108 6.33642L7.41173 7.21298L2.37361 13.1436C1.92857 12.0569 1.71957 10.8881 1.76046 9.71452C1.80135 8.54096 2.0912 7.38949 2.6108 6.33642ZM17.6267 6.8558C18.0718 7.94263 18.2808 9.11164 18.2399 10.2854C18.199 11.4591 17.9092 12.6107 17.3895 13.6639L12.5886 12.7874L17.6267 6.8558ZM16.8692 5.4308L13.708 9.15642L11.0905 1.8233C12.8875 2.05831 14.5558 2.88258 15.8342 4.16705C16.2199 4.55333 16.5665 4.97661 16.8692 5.4308ZM9.47799 1.76798L11.1195 6.36174L3.4658 4.96767C3.68199 4.6859 3.9159 4.41817 4.16611 4.16611C5.58285 2.74254 7.47323 1.88909 9.47799 1.76798ZM3.13111 14.5695L6.29236 10.8439L8.90986 18.1733C7.74531 18.0181 6.62734 17.616 5.63074 16.9939C4.63415 16.3717 3.78193 15.5439 3.13111 14.5658V14.5695ZM10.5224 18.2314L8.8808 13.6377L11.0445 14.0314L16.5308 15.0336C15.8162 15.9662 14.9096 16.7345 13.8723 17.2864C12.8351 17.8382 11.6914 18.1608 10.5186 18.2324L10.5224 18.2314Z" fill="#F0F0F0"/>
</svg>
