<svg width="40" height="40" viewBox="0 0 40 40" fill="none" xmlns="http://www.w3.org/2000/svg">
<path d="M20 0.5C16.1433 0.5 12.3731 1.64366 9.16639 3.78634C5.95963 5.92903 3.46027 8.97451 1.98436 12.5377C0.508449 16.1008 0.122284 20.0216 0.874696 23.8043C1.62711 27.5869 3.4843 31.0615 6.21143 33.7886C8.93855 36.5157 12.4131 38.3729 16.1957 39.1253C19.9784 39.8777 23.8992 39.4916 27.4623 38.0156C31.0255 36.5397 34.071 34.0404 36.2137 30.8336C38.3564 27.6269 39.5 23.8567 39.5 20C39.4945 14.83 37.4383 9.87322 33.7826 6.21745C30.1268 2.56167 25.1701 0.50546 20 0.5ZM30.5 21.5H20C19.6022 21.5 19.2207 21.342 18.9393 21.0607C18.658 20.7794 18.5 20.3978 18.5 20V9.5C18.5 9.10218 18.658 8.72064 18.9393 8.43934C19.2207 8.15804 19.6022 8 20 8C20.3978 8 20.7794 8.15804 21.0607 8.43934C21.342 8.72064 21.5 9.10218 21.5 9.5V18.5H30.5C30.8978 18.5 31.2794 18.658 31.5607 18.9393C31.842 19.2206 32 19.6022 32 20C32 20.3978 31.842 20.7794 31.5607 21.0607C31.2794 21.342 30.8978 21.5 30.5 21.5Z" fill="url(#paint0_linear_732_13031)"/>
<defs>
<linearGradient id="paint0_linear_732_13031" x1="19.9996" y1="11.6982" x2="20" y2="52.5" gradientUnits="userSpaceOnUse">
<stop stop-color="#289C88"/>
<stop offset="1" stop-color="white"/>
</linearGradient>
</defs>
</svg>
