<svg width="40" height="35" viewBox="0 0 40 35" fill="none" xmlns="http://www.w3.org/2000/svg">
<path d="M14 14.3544L16.0737 18.5H11.9263L14 14.3544ZM39.5 3.5V33.5C39.5002 33.7558 39.4349 34.0074 39.3105 34.2309C39.186 34.4544 39.0064 34.6424 38.7888 34.7769C38.5713 34.9114 38.3229 34.9881 38.0673 34.9996C37.8118 35.011 37.5575 34.957 37.3288 34.8425L32 32.1763L26.6712 34.8425C26.4629 34.9468 26.233 35.0011 26 35.0011C25.767 35.0011 25.5371 34.9468 25.3288 34.8425L20 32.1763L14.6713 34.8425C14.4629 34.9468 14.233 35.0011 14 35.0011C13.767 35.0011 13.5371 34.9468 13.3287 34.8425L8 32.1763L2.67125 34.8425C2.44248 34.957 2.18823 35.011 1.93267 34.9996C1.67711 34.9881 1.42873 34.9114 1.21115 34.7769C0.993567 34.6424 0.814005 34.4544 0.689534 34.2309C0.565062 34.0074 0.499817 33.7558 0.5 33.5V3.5C0.5 2.70435 0.816071 1.94129 1.37868 1.37868C1.94129 0.81607 2.70435 0.5 3.5 0.5H36.5C37.2957 0.5 38.0587 0.81607 38.6213 1.37868C39.1839 1.94129 39.5 2.70435 39.5 3.5ZM21.3425 22.3288L15.3425 10.3287C15.2181 10.0791 15.0266 9.86915 14.7894 9.72238C14.5523 9.5756 14.2789 9.49785 14 9.49785C13.7211 9.49785 13.4477 9.5756 13.2106 9.72238C12.9734 9.86915 12.7819 10.0791 12.6575 10.3287L6.6575 22.3288C6.47947 22.6848 6.45018 23.097 6.57606 23.4746C6.70195 23.8523 6.9727 24.1645 7.32875 24.3425C7.6848 24.5205 8.09699 24.5498 8.47465 24.4239C8.8523 24.2981 9.16447 24.0273 9.3425 23.6712L10.4263 21.5H17.5737L18.6575 23.6712C18.7456 23.8475 18.8677 24.0048 19.0166 24.1339C19.1655 24.2631 19.3384 24.3616 19.5254 24.4239C19.7123 24.4863 19.9098 24.5112 20.1064 24.4972C20.303 24.4832 20.495 24.4307 20.6712 24.3425C20.8475 24.2544 21.0048 24.1323 21.1339 23.9834C21.2631 23.8345 21.3616 23.6616 21.4239 23.4746C21.4863 23.2877 21.5112 23.0902 21.4972 22.8936C21.4832 22.697 21.4307 22.505 21.3425 22.3288ZM35 17C35 16.6022 34.842 16.2206 34.5607 15.9393C34.2794 15.658 33.8978 15.5 33.5 15.5H30.5V12.5C30.5 12.1022 30.342 11.7206 30.0607 11.4393C29.7794 11.158 29.3978 11 29 11C28.6022 11 28.2206 11.158 27.9393 11.4393C27.658 11.7206 27.5 12.1022 27.5 12.5V15.5H24.5C24.1022 15.5 23.7206 15.658 23.4393 15.9393C23.158 16.2206 23 16.6022 23 17C23 17.3978 23.158 17.7794 23.4393 18.0607C23.7206 18.342 24.1022 18.5 24.5 18.5H27.5V21.5C27.5 21.8978 27.658 22.2794 27.9393 22.5607C28.2206 22.842 28.6022 23 29 23C29.3978 23 29.7794 22.842 30.0607 22.5607C30.342 22.2794 30.5 21.8978 30.5 21.5V18.5H33.5C33.8978 18.5 34.2794 18.342 34.5607 18.0607C34.842 17.7794 35 17.3978 35 17Z" fill="url(#paint0_linear_732_13025)"/>
<defs>
<linearGradient id="paint0_linear_732_13025" x1="19.9996" y1="10.4064" x2="19.9996" y2="46.5211" gradientUnits="userSpaceOnUse">
<stop stop-color="#FF6A00"/>
<stop offset="1" stop-color="white"/>
</linearGradient>
</defs>
</svg>
