<svg width="45" height="28" viewBox="0 0 45 28" fill="none" xmlns="http://www.w3.org/2000/svg">
<path d="M33 3.5V24.5C33 25.2956 32.6839 26.0587 32.1213 26.6213C31.5587 27.1839 30.7956 27.5 30 27.5H3C2.20435 27.5 1.44129 27.1839 0.878679 26.6213C0.31607 26.0587 0 25.2956 0 24.5V3.5C0 2.70435 0.31607 1.94129 0.878679 1.37868C1.44129 0.81607 2.20435 0.5 3 0.5H30C30.7956 0.5 31.5587 0.81607 32.1213 1.37868C32.6839 1.94129 33 2.70435 33 3.5ZM43.875 3.54688C43.6634 3.49509 43.4432 3.4887 43.2289 3.52813C43.0147 3.56756 42.8112 3.6519 42.6319 3.77563L36.3337 7.97375C36.231 8.0423 36.1468 8.13516 36.0886 8.24408C36.0303 8.353 35.9999 8.47462 36 8.59813V19.4019C35.9999 19.5254 36.0303 19.647 36.0886 19.7559C36.1468 19.8648 36.231 19.9577 36.3337 20.0262L42.6675 24.2488C42.9046 24.4069 43.1818 24.4942 43.4667 24.5005C43.7516 24.5068 44.0324 24.4319 44.2762 24.2844C44.5018 24.141 44.6869 23.942 44.8136 23.7067C44.9403 23.4713 45.0045 23.2073 45 22.94V5C45.0002 4.66733 44.8897 4.34404 44.6861 4.08098C44.4824 3.81793 44.1971 3.63004 43.875 3.54688Z" fill="url(#paint0_linear_732_13044)"/>
<defs>
<linearGradient id="paint0_linear_732_13044" x1="22.4996" y1="8.25262" x2="22.4996" y2="36.5154" gradientUnits="userSpaceOnUse">
<stop stop-color="#000DFF"/>
<stop offset="1" stop-color="white"/>
</linearGradient>
</defs>
</svg>
