<svg width="46" height="33" viewBox="0 0 46 33" fill="none" xmlns="http://www.w3.org/2000/svg">
<path d="M11.0196 18.7118C11.0247 18.8134 11.009 18.915 10.9736 19.0104C10.9382 19.1057 10.8838 19.1929 10.8136 19.2666C10.7435 19.3402 10.6591 19.3988 10.5655 19.4389C10.472 19.4789 10.3713 19.4994 10.2696 19.4993H1.99709C1.65853 19.4998 1.32976 19.3858 1.06423 19.1757C0.7987 18.9657 0.612036 18.672 0.534591 18.3424C0.486368 18.1168 0.488591 17.8834 0.541101 17.6588C0.593611 17.4341 0.695111 17.2239 0.838341 17.0431C2.16173 15.288 3.91763 13.9062 5.93459 13.0324C5.04908 12.2251 4.36991 11.2173 3.95398 10.0934C3.53805 8.96961 3.39746 7.76249 3.54399 6.57315C3.69052 5.38382 4.1199 4.24692 4.79616 3.25765C5.47243 2.26839 6.3759 1.45557 7.43089 0.887275C8.48589 0.31898 9.6617 0.0117526 10.8599 -0.00867558C12.058 -0.0291038 13.2436 0.237862 14.3174 0.769862C15.3911 1.30186 16.3218 2.08341 17.0314 3.04904C17.741 4.01468 18.2088 5.13629 18.3958 6.31993C18.42 6.47911 18.3915 6.64181 18.3146 6.78328C18.2378 6.92476 18.1169 7.03727 17.9702 7.10368C15.8897 8.06552 14.1277 9.60239 12.8922 11.533C11.6566 13.4635 10.9991 15.7072 10.9971 17.9993C10.9971 18.2393 10.9971 18.4756 11.0196 18.7118ZM45.1446 17.0412C43.8242 15.2882 42.0724 13.9071 40.0596 13.0324C40.9451 12.2251 41.6243 11.2173 42.0402 10.0934C42.4561 8.96961 42.5967 7.76249 42.4502 6.57315C42.3036 5.38382 41.8743 4.24692 41.198 3.25765C40.5217 2.26839 39.6183 1.45557 38.5633 0.887275C37.5083 0.31898 36.3325 0.0117526 35.1343 -0.00867558C33.9362 -0.0291038 32.7506 0.237862 31.6768 0.769862C30.603 1.30186 29.6724 2.08341 28.9628 3.04904C28.2532 4.01468 27.7853 5.13629 27.5983 6.31993C27.5742 6.47911 27.6027 6.64181 27.6795 6.78328C27.7564 6.92476 27.8773 7.03727 28.024 7.10368C30.1045 8.06552 31.8665 9.60239 33.102 11.533C34.3376 13.4635 34.9951 15.7072 34.9971 17.9993C34.9971 18.2393 34.9971 18.4756 34.9746 18.7118C34.9695 18.8134 34.9851 18.915 35.0205 19.0104C35.0559 19.1057 35.1104 19.1929 35.1805 19.2666C35.2507 19.3402 35.3351 19.3988 35.4286 19.4389C35.5222 19.4789 35.6229 19.4994 35.7246 19.4993H43.9971C44.3356 19.4998 44.6644 19.3858 44.9299 19.1757C45.1955 18.9657 45.3821 18.672 45.4596 18.3424C45.5081 18.1164 45.5058 17.8825 45.453 17.6575C45.4001 17.4324 45.298 17.222 45.1539 17.0412H45.1446ZM28.4571 25.1374C29.9506 23.9936 31.0482 22.4106 31.5955 20.6107C32.1429 18.8109 32.1125 16.8848 31.5086 15.1032C30.9047 13.3215 29.7578 11.7739 28.2289 10.6777C26.7 9.58163 24.8661 8.99214 22.9849 8.99214C21.1037 8.99214 19.2698 9.58163 17.7409 10.6777C16.212 11.7739 15.065 13.3215 14.4612 15.1032C13.8573 16.8848 13.8269 18.8109 14.3743 20.6107C14.9216 22.4106 16.0192 23.9936 17.5127 25.1374C14.8625 26.2857 12.6495 28.2523 11.1977 30.7493C11.066 30.9774 10.9967 31.2361 10.9968 31.4994C10.9968 31.7627 11.0661 32.0214 11.1978 32.2495C11.3295 32.4775 11.5189 32.6668 11.747 32.7985C11.975 32.9301 12.2338 32.9994 12.4971 32.9993H33.4971C33.7604 32.9994 34.0191 32.9301 34.2472 32.7985C34.4753 32.6668 34.6647 32.4775 34.7964 32.2495C34.9281 32.0214 34.9974 31.7627 34.9974 31.4994C34.9974 31.2361 34.9281 30.9774 34.7965 30.7493C33.3416 28.2507 31.1245 26.284 28.4702 25.1374H28.4571Z" fill="url(#paint0_linear_732_13050)"/>
<defs>
<linearGradient id="paint0_linear_732_13050" x1="22.9967" y1="9.46827" x2="22.9967" y2="44.0211" gradientUnits="userSpaceOnUse">
<stop stop-color="#866713"/>
<stop offset="1" stop-color="white"/>
</linearGradient>
</defs>
</svg>
