<svg width="45" height="30" viewBox="0 0 45 30" fill="none" xmlns="http://www.w3.org/2000/svg">
<path d="M45 1.5V28.5C45 28.8978 44.842 29.2794 44.5607 29.5607C44.2794 29.842 43.8978 30 43.5 30H1.5C1.10218 30 0.720644 29.842 0.43934 29.5607C0.158035 29.2794 0 28.8978 0 28.5C0 28.1022 0.158035 27.7206 0.43934 27.4393C0.720644 27.158 1.10218 27 1.5 27H10.5V19.5C10.5 19.1022 10.658 18.7206 10.9393 18.4393C11.2206 18.158 11.6022 18 12 18H21V10.5C21 10.1022 21.158 9.72064 21.4393 9.43934C21.7206 9.15804 22.1022 9 22.5 9H31.5V1.5C31.5 1.10218 31.658 0.720645 31.9393 0.43934C32.2206 0.158036 32.6022 0 33 0H43.5C43.8978 0 44.2794 0.158036 44.5607 0.43934C44.842 0.720645 45 1.10218 45 1.5Z" fill="url(#paint0_linear_732_13056)"/>
<defs>
<linearGradient id="paint0_linear_732_13056" x1="22.4995" y1="8.61403" x2="22.4995" y2="40.0171" gradientUnits="userSpaceOnUse">
<stop stop-color="#FF7700"/>
<stop offset="1" stop-color="white"/>
</linearGradient>
</defs>
</svg>
