<svg width="17" height="16" viewBox="0 0 17 16" fill="none" xmlns="http://www.w3.org/2000/svg">
<path d="M16.6526 1.04141C16.5963 0.952219 16.5184 0.878728 16.4261 0.827776C16.3337 0.776824 16.23 0.750068 16.1245 0.75H1.12452C1.00083 0.749903 0.879898 0.786506 0.777027 0.855175C0.674156 0.923844 0.593972 1.02149 0.546627 1.13576C0.499281 1.25002 0.486903 1.37576 0.51106 1.49707C0.535216 1.61837 0.594821 1.72978 0.682328 1.81719L3.99092 5.125L0.682328 8.43281C0.594821 8.52022 0.535216 8.63163 0.51106 8.75293C0.486903 8.87424 0.499281 8.99998 0.546627 9.11424C0.593972 9.22851 0.674156 9.32616 0.777027 9.39483C0.879898 9.4635 1.00083 9.5001 1.12452 9.5H11.5636L9.31045 14.2313C9.27278 14.3056 9.25035 14.3868 9.24451 14.4699C9.23866 14.5531 9.2495 14.6365 9.2764 14.7154C9.3033 14.7943 9.34571 14.8671 9.40114 14.9293C9.45656 14.9916 9.52388 15.0421 9.59914 15.078C9.67439 15.1138 9.75605 15.1343 9.83932 15.1381C9.9226 15.1419 10.0058 15.129 10.084 15.1002C10.1622 15.0714 10.2339 15.0272 10.2948 14.9703C10.3557 14.9134 10.4046 14.8449 10.4386 14.7688L16.6886 1.64375C16.7339 1.54848 16.7544 1.44328 16.7481 1.33795C16.7418 1.23263 16.709 1.13061 16.6526 1.04141ZM12.1581 8.25H2.63311L5.3167 5.56719C5.37481 5.50914 5.42091 5.44021 5.45237 5.36434C5.48382 5.28846 5.50001 5.20714 5.50001 5.125C5.50001 5.04287 5.48382 4.96154 5.45237 4.88566C5.42091 4.80979 5.37481 4.74086 5.3167 4.68281L2.63311 2H15.1331L12.1581 8.25Z" fill="#535966"/>
</svg>
