<svg width="22" height="16" viewBox="0 0 22 16" fill="none" xmlns="http://www.w3.org/2000/svg">
<path d="M20.9688 5.8725C20.8295 5.67951 20.6464 5.5224 20.4345 5.41416C20.2226 5.30592 19.988 5.24965 19.75 5.25H18.25V3.75C18.25 3.35218 18.092 2.97064 17.8107 2.68934C17.5294 2.40804 17.1478 2.25 16.75 2.25H10.2503L7.65063 0.3C7.39054 0.106109 7.07503 0.000937519 6.75062 0H1.75C1.35218 0 0.970644 0.158035 0.68934 0.43934C0.408035 0.720644 0.25 1.10218 0.25 1.5V15C0.25 15.1989 0.329018 15.3897 0.46967 15.5303C0.610322 15.671 0.801088 15.75 1 15.75H17.7906C17.948 15.75 18.1015 15.7005 18.2292 15.6085C18.3569 15.5164 18.4524 15.3865 18.5022 15.2372L21.1731 7.22437C21.2482 6.99891 21.2689 6.75886 21.2334 6.52388C21.1978 6.28891 21.1072 6.06569 20.9688 5.8725ZM6.75062 1.5L9.55 3.6C9.67982 3.69737 9.83772 3.75 10 3.75H16.75V5.25H4.54094C4.2261 5.24998 3.91924 5.34902 3.66382 5.53309C3.4084 5.71717 3.21738 5.97695 3.11781 6.27563L1.75 10.3781V1.5H6.75062ZM17.2506 14.25H2.04062L4.54094 6.75H19.75L17.2506 14.25Z" fill="#535966"/>
</svg>
