<svg width="24" height="25" viewBox="0 0 24 25" fill="none" xmlns="http://www.w3.org/2000/svg">
<path d="M12 1.4375C9.9375 1.4375 8.01047 3.17094 6.68883 5.30586C5.52305 7.18906 4.84664 9.56314 5.6325 11.6466L4.40625 12.2598V21.8281H6.09375V13.3027L7.94231 12.3784L7.47356 11.5971C6.57834 10.1052 7.00781 7.99662 8.12367 6.19414C9.23953 4.39156 11.0625 3.125 12 3.125C12.9375 3.125 14.7605 4.39156 15.8763 6.19414C16.9922 7.99672 17.4217 10.1052 16.5265 11.5971L16.0577 12.3784L17.9062 13.3027V21.8281H19.5938V12.2598L18.3675 11.6466C19.1534 9.56314 18.4769 7.18906 17.3112 5.30586C15.9895 3.17094 14.0625 1.4375 12 1.4375ZM12.4219 3.98919V23.5625H17.1562V13.7664L14.9792 12.6777C15.5427 11.7767 16.2975 10.8476 16.2606 9.73025C16.1499 7.41495 14.6834 5.28017 12.697 4.11378C12.6092 4.06897 12.5168 4.02547 12.4219 3.98919ZM11.5781 4.00719C10.4097 4.45198 9.5678 5.48572 8.84227 6.46625C8.02917 7.70019 7.4993 9.23431 7.88719 10.7073C8.07975 11.3122 8.397 11.7747 8.69963 12.4175C8.86012 12.7165 8.81405 12.6363 7.67395 13.3512L6.84375 13.7664V23.5625H11.5781V4.00719ZM7.82812 17.2812H8.67188C8.67188 17.5508 8.75784 17.6995 8.88183 17.8097C9.00577 17.9199 9.1875 17.9844 9.375 17.9844C9.5625 17.9844 9.74423 17.9199 9.86817 17.8097C9.99211 17.6995 10.0781 17.5508 10.0781 17.2812H10.9219C10.9219 17.7617 10.7266 18.1755 10.4287 18.4403C10.1308 18.7052 9.75 18.8281 9.375 18.8281C9 18.8281 8.61923 18.7051 8.3213 18.4403C8.02341 18.1755 7.82812 17.7617 7.82812 17.2812ZM13.0781 17.2812H13.9219C13.9219 17.5508 14.0078 17.6995 14.1318 17.8097C14.2558 17.9199 14.4375 17.9844 14.625 17.9844C14.8125 17.9844 14.9942 17.9199 15.1182 17.8097C15.2421 17.6995 15.3281 17.5508 15.3281 17.2812H16.1719C16.1719 17.7617 15.9766 18.1755 15.6787 18.4403C15.3808 18.7052 15 18.8281 14.625 18.8281C14.25 18.8281 13.8692 18.7051 13.5713 18.4403C13.2734 18.1755 13.0781 17.7617 13.0781 17.2812ZM4.40625 22.6719V23.5625H6.09375V22.6719H4.40625ZM17.9062 22.6719V23.5625H19.5938V22.6719H17.9062Z" fill="url(#paint0_linear_732_12479)"/>
<defs>
<linearGradient id="paint0_linear_732_12479" x1="12.5" y1="1.5" x2="12" y2="28" gradientUnits="userSpaceOnUse">
<stop stop-color="#673ACE"/>
<stop offset="1" stop-color="#45FFBE"/>
</linearGradient>
</defs>
</svg>
