<svg width="18" height="16" viewBox="0 0 18 16" fill="none" xmlns="http://www.w3.org/2000/svg">
<path d="M15.875 4.62499H13.1344C13.1648 4.59921 13.1961 4.57421 13.2258 4.54687C13.4631 4.33607 13.6543 4.07858 13.7875 3.7905C13.9207 3.50243 13.9931 3.18996 14 2.87265C14.0103 2.52552 13.9495 2.17995 13.8213 1.85717C13.6932 1.53438 13.5005 1.24119 13.255 0.99559C13.0094 0.749988 12.7163 0.557161 12.3936 0.428946C12.0708 0.30073 11.7253 0.239833 11.3781 0.249992C11.0607 0.256829 10.7481 0.329121 10.4598 0.462341C10.1716 0.595562 9.91401 0.786843 9.70312 1.02421C9.41131 1.36241 9.17408 1.74409 9 2.15546C8.82592 1.74409 8.58869 1.36241 8.29688 1.02421C8.08599 0.786843 7.82837 0.595562 7.54015 0.462341C7.25193 0.329121 6.93932 0.256829 6.62187 0.249992C6.27474 0.239833 5.9292 0.30073 5.60645 0.428946C5.2837 0.557161 4.99057 0.749988 4.74504 0.99559C4.49951 1.24119 4.30677 1.53438 4.17865 1.85717C4.05053 2.17995 3.98974 2.52552 4 2.87265C4.00694 3.18996 4.07929 3.50243 4.2125 3.7905C4.34572 4.07858 4.53695 4.33607 4.77422 4.54687C4.80391 4.57265 4.83516 4.59765 4.86563 4.62499H2.125C1.79348 4.62499 1.47554 4.75669 1.24112 4.99111C1.0067 5.22553 0.875 5.54347 0.875 5.87499V8.37499C0.875 8.70651 1.0067 9.02446 1.24112 9.25887C1.47554 9.4933 1.79348 9.62499 2.125 9.62499V14.625C2.125 14.9565 2.2567 15.2745 2.49112 15.5089C2.72554 15.7433 3.04348 15.875 3.375 15.875H8.0625C8.14538 15.875 8.22487 15.8421 8.28347 15.7835C8.34208 15.7249 8.375 15.6454 8.375 15.5625V8.37499H2.125V5.87499H8.375V8.37499H9.625V5.87499H15.875V8.37499H9.625V15.5625C9.625 15.6454 9.65792 15.7249 9.71653 15.7835C9.77513 15.8421 9.85462 15.875 9.9375 15.875H14.625C14.9565 15.875 15.2745 15.7433 15.5089 15.5089C15.7433 15.2745 15.875 14.9565 15.875 14.625V9.62499C16.2065 9.62499 16.5245 9.4933 16.7589 9.25887C16.9933 9.02446 17.125 8.70651 17.125 8.37499V5.87499C17.125 5.54347 16.9933 5.22553 16.7589 4.99111C16.5245 4.75669 16.2065 4.62499 15.875 4.62499ZM5.60234 3.60937C5.49306 3.51041 5.40542 3.38992 5.34492 3.25548C5.28442 3.12104 5.25237 2.97554 5.25078 2.82812C5.24683 2.65538 5.27739 2.4836 5.34068 2.32283C5.40396 2.16206 5.4987 2.01554 5.61933 1.89185C5.73997 1.76816 5.88408 1.66979 6.04321 1.6025C6.20235 1.53521 6.37332 1.50036 6.54609 1.49999H6.58438C6.7318 1.50158 6.87729 1.53363 7.01174 1.59413C7.14618 1.65463 7.26667 1.74227 7.36563 1.85155C8.02109 2.59218 8.25234 3.8203 8.33359 4.57968C7.57109 4.49921 6.34375 4.26796 5.60234 3.60937ZM12.3992 3.60937C11.6578 4.26562 10.4273 4.49687 9.66484 4.57812C9.75781 3.75702 10.0156 2.55468 10.6406 1.85234C10.7396 1.74305 10.8601 1.65541 10.9945 1.59491C11.129 1.53441 11.2745 1.50236 11.4219 1.50077H11.4602C11.6329 1.50185 11.8038 1.53741 11.9626 1.60536C12.1215 1.67331 12.2652 1.77229 12.3854 1.89649C12.5055 2.02069 12.5996 2.16762 12.6622 2.32867C12.7248 2.48971 12.7547 2.66164 12.75 2.83437C12.7475 2.98079 12.7149 3.12512 12.6543 3.25844C12.5937 3.39175 12.5063 3.51119 12.3977 3.60937H12.3992Z" fill="#AFAFAF"/>
</svg>
