<svg width="24" height="22" viewBox="0 0 24 22" fill="none" xmlns="http://www.w3.org/2000/svg">
<path d="M16.4998 17.4286C17.0171 17.2248 17.5185 16.9825 17.9998 16.7039V20.4999C17.9998 20.6988 17.9207 20.8896 17.7801 21.0302C17.6394 21.1709 17.4487 21.2499 17.2498 21.2499C17.0509 21.2499 16.8601 21.1709 16.7194 21.0302C16.5788 20.8896 16.4998 20.6988 16.4998 20.4999V17.4286ZM17.6023 9.13831L12.3523 6.338C12.1771 6.24853 11.9738 6.23145 11.7862 6.29044C11.5985 6.34943 11.4416 6.47976 11.3491 6.65337C11.2567 6.82697 11.2361 7.02994 11.2919 7.21856C11.3476 7.40717 11.4753 7.56633 11.6473 7.66175L16.031 9.99988L17.6248 9.1505L17.6023 9.13831ZM23.6023 6.338L12.3523 0.338C12.2438 0.28022 12.1227 0.25 11.9998 0.25C11.8768 0.25 11.7558 0.28022 11.6473 0.338L0.397266 6.338C0.27727 6.40195 0.176916 6.49732 0.106941 6.6139C0.036965 6.73049 0 6.8639 0 6.99988C0 7.13585 0.036965 7.26926 0.106941 7.38585C0.176916 7.50243 0.27727 7.5978 0.397266 7.66175L2.99977 9.05019V13.5896C2.99899 13.958 3.13457 14.3136 3.38039 14.588C4.60852 15.9558 7.36008 18.2499 11.9998 18.2499C13.5382 18.2626 15.065 17.9839 16.4998 17.4286V10.2502L16.031 9.99988L11.9998 12.1496L4.10883 7.93738L2.34352 6.99988L11.9998 1.85019L21.656 6.99988L19.8954 7.93738H19.8898L17.6248 9.1505C17.7388 9.21634 17.8335 9.31105 17.8993 9.42509C17.9652 9.53914 17.9998 9.66851 17.9998 9.80019V16.7039C18.9778 16.1394 19.8616 15.4254 20.6191 14.588C20.865 14.3136 21.0005 13.958 20.9998 13.5896V9.05019L23.6023 7.66175C23.7223 7.5978 23.8226 7.50243 23.8926 7.38585C23.9626 7.26926 23.9995 7.13585 23.9995 6.99988C23.9995 6.8639 23.9626 6.73049 23.8926 6.6139C23.8226 6.49732 23.7223 6.40195 23.6023 6.338Z" fill="#F0F0F0"/>
</svg>
