<svg width="22" height="19" viewBox="0 0 22 19" fill="none" xmlns="http://www.w3.org/2000/svg">
<path d="M21.5 6.0625C21.5 12.625 11.7697 17.9369 11.3553 18.1562C11.2461 18.215 11.124 18.2458 11 18.2458C10.876 18.2458 10.7539 18.215 10.6447 18.1562C10.2303 17.9369 0.5 12.625 0.5 6.0625C0.501737 4.52146 1.11468 3.04404 2.20436 1.95436C3.29404 0.864681 4.77146 0.251737 6.3125 0.25C8.24844 0.25 9.94344 1.0825 11 2.48969C12.0566 1.0825 13.7516 0.25 15.6875 0.25C17.2285 0.251737 18.706 0.864681 19.7956 1.95436C20.8853 3.04404 21.4983 4.52146 21.5 6.0625Z" fill="url(#paint0_linear_732_12471)"/>
<defs>
<linearGradient id="paint0_linear_732_12471" x1="0.5" y1="2.63179" x2="20.9797" y2="6.17135" gradientUnits="userSpaceOnUse">
<stop stop-color="#DF186A"/>
<stop offset="1" stop-color="#FA6F21"/>
</linearGradient>
</defs>
</svg>
