<svg width="19" height="17" viewBox="0 0 19 17" fill="none" xmlns="http://www.w3.org/2000/svg">
<path d="M18.25 15.25H17V9.62496L17.1828 9.80777C17.3003 9.92505 17.4596 9.99085 17.6256 9.9907C17.7916 9.99056 17.9507 9.92447 18.068 9.80699C18.1852 9.68951 18.251 9.53025 18.2509 9.36425C18.2508 9.19825 18.1847 9.03911 18.0672 8.92183L10.3836 1.24058C10.1492 1.00634 9.83138 0.874756 9.5 0.874756C9.16862 0.874756 8.8508 1.00634 8.61641 1.24058L0.932813 8.92183C0.815641 9.03911 0.749855 9.19813 0.749929 9.36391C0.750002 9.52969 0.815928 9.68865 0.933203 9.80582C1.05048 9.92299 1.2095 9.98877 1.37528 9.9887C1.54106 9.98863 1.70002 9.9227 1.81719 9.80543L2 9.62496V15.25H0.75C0.58424 15.25 0.425268 15.3158 0.308058 15.433C0.190848 15.5502 0.125 15.7092 0.125 15.875C0.125 16.0407 0.190848 16.1997 0.308058 16.3169C0.425268 16.4341 0.58424 16.5 0.75 16.5H18.25C18.4158 16.5 18.5747 16.4341 18.6919 16.3169C18.8092 16.1997 18.875 16.0407 18.875 15.875C18.875 15.7092 18.8092 15.5502 18.6919 15.433C18.5747 15.3158 18.4158 15.25 18.25 15.25ZM11.375 15.25H7.625V11.5C7.625 11.4171 7.65792 11.3376 7.71653 11.279C7.77513 11.2204 7.85462 11.1875 7.9375 11.1875H11.0625C11.1454 11.1875 11.2249 11.2204 11.2835 11.279C11.3421 11.3376 11.375 11.4171 11.375 11.5V15.25Z" fill="#AFAFAF"/>
</svg>
