<svg width="19" height="17" viewBox="0 0 19 17" fill="none" xmlns="http://www.w3.org/2000/svg">
<path d="M18.25 15.2502H17V9.6252L17.1828 9.80801C17.3003 9.92529 17.4596 9.99109 17.6256 9.99095C17.7916 9.9908 17.9507 9.92472 18.068 9.80723C18.1852 9.68975 18.251 9.53049 18.2509 9.36449C18.2508 9.19849 18.1847 9.03935 18.0672 8.92208L10.3836 1.24083C10.1492 1.00658 9.83138 0.875 9.5 0.875C9.16862 0.875 8.8508 1.00658 8.61641 1.24083L0.932813 8.92208C0.815641 9.03935 0.749855 9.19837 0.749929 9.36415C0.750002 9.52993 0.815928 9.68889 0.933203 9.80606C1.05048 9.92323 1.2095 9.98902 1.37528 9.98895C1.54106 9.98887 1.70002 9.92295 1.81719 9.80567L2 9.6252V15.2502H0.75C0.58424 15.2502 0.425268 15.316 0.308058 15.4333C0.190848 15.5505 0.125 15.7094 0.125 15.8752C0.125 16.041 0.190848 16.1999 0.308058 16.3171C0.425268 16.4344 0.58424 16.5002 0.75 16.5002H18.25C18.4158 16.5002 18.5747 16.4344 18.6919 16.3171C18.8092 16.1999 18.875 16.041 18.875 15.8752C18.875 15.7094 18.8092 15.5505 18.6919 15.4333C18.5747 15.316 18.4158 15.2502 18.25 15.2502ZM11.375 15.2502H7.625V11.5002C7.625 11.4173 7.65792 11.3378 7.71653 11.2792C7.77513 11.2206 7.85462 11.1877 7.9375 11.1877H11.0625C11.1454 11.1877 11.2249 11.2206 11.2835 11.2792C11.3421 11.3378 11.375 11.4173 11.375 11.5002V15.2502Z" fill="url(#paint0_linear_816_6159)"/>
<defs>
<linearGradient id="paint0_linear_816_6159" x1="0.125" y1="2.94304" x2="18.3801" y2="6.18745" gradientUnits="userSpaceOnUse">
<stop stop-color="#DF186A"/>
<stop offset="1" stop-color="#FA6F21"/>
</linearGradient>
</defs>
</svg>
