<svg width="21" height="21" viewBox="0 0 21 21" fill="none" xmlns="http://www.w3.org/2000/svg">
<path d="M18.3034 2.69655C17.1121 1.50359 15.5536 0.74681 13.8794 0.548325C12.2052 0.349839 10.513 0.721229 9.07576 1.60256C7.63854 2.4839 6.54018 3.82377 5.95793 5.40597C5.37568 6.98816 5.34349 8.72039 5.86657 10.3231L0.689695 15.5C0.549801 15.6388 0.438889 15.804 0.363407 15.986C0.287925 16.168 0.249378 16.3632 0.250008 16.5603V19.25C0.250008 19.6478 0.408043 20.0293 0.689347 20.3107C0.970652 20.592 1.35218 20.75 1.75001 20.75H4.75001C4.94892 20.75 5.13969 20.671 5.28034 20.5303C5.42099 20.3897 5.50001 20.1989 5.50001 20V18.5H7.00001C7.19892 18.5 7.38969 18.421 7.53034 18.2803C7.67099 18.1397 7.75001 17.9489 7.75001 17.75V16.25H9.25001C9.34853 16.2501 9.4461 16.2307 9.53715 16.1931C9.62819 16.1555 9.71093 16.1002 9.78063 16.0306L10.6769 15.1334C11.4271 15.3774 12.2111 15.5012 13 15.5H13.0094C14.492 15.4982 15.9408 15.057 17.1728 14.2322C18.4048 13.4074 19.3646 12.2359 19.9312 10.8658C20.4977 9.49573 20.6454 7.98846 20.3557 6.53444C20.066 5.08042 19.3518 3.74488 18.3034 2.69655ZM14.875 7.62499C14.5783 7.62499 14.2883 7.53702 14.0417 7.3722C13.795 7.20737 13.6027 6.97311 13.4892 6.69902C13.3757 6.42493 13.346 6.12333 13.4038 5.83236C13.4617 5.54139 13.6046 5.27411 13.8143 5.06433C14.0241 4.85455 14.2914 4.71169 14.5824 4.65381C14.8733 4.59594 15.1749 4.62564 15.449 4.73917C15.7231 4.8527 15.9574 5.04496 16.1222 5.29164C16.287 5.53831 16.375 5.82832 16.375 6.12499C16.375 6.52282 16.217 6.90435 15.9357 7.18565C15.6544 7.46696 15.2728 7.62499 14.875 7.62499Z" fill="url(#paint0_linear_732_13411)"/>
<defs>
<linearGradient id="paint0_linear_732_13411" x1="15.5" y1="2.64527e-07" x2="6.40921" y2="24.9257" gradientUnits="userSpaceOnUse">
<stop stop-color="#21E0CA"/>
<stop offset="1" stop-color="#1A2CA7"/>
</linearGradient>
</defs>
</svg>
