<svg width="14" height="14" viewBox="0 0 14 14" fill="none" xmlns="http://www.w3.org/2000/svg">
<path d="M9.625 10.8335C9.92679 10.7146 10.2193 10.5733 10.5 10.4108V12.6251C10.5 12.7411 10.4539 12.8524 10.3719 12.9344C10.2898 13.0165 10.1785 13.0626 10.0625 13.0626C9.94647 13.0626 9.83519 13.0165 9.75314 12.9344C9.67109 12.8524 9.625 12.7411 9.625 12.6251V10.8335ZM10.2681 5.99747L7.20562 4.36396C7.10345 4.31177 6.98486 4.3018 6.87541 4.33621C6.76596 4.37062 6.6744 4.44665 6.62047 4.54792C6.56653 4.64919 6.55454 4.76759 6.58707 4.87761C6.6196 4.98764 6.69405 5.08048 6.79437 5.13614L9.35156 6.50005L10.2812 6.00458L10.2681 5.99747ZM13.7681 4.36396L7.20562 0.863956C7.14233 0.83025 7.07171 0.812622 7 0.812622C6.92829 0.812622 6.85767 0.83025 6.79437 0.863956L0.231876 4.36396C0.161878 4.40126 0.103338 4.45689 0.0625194 4.5249C0.0217002 4.59291 0.000137329 4.67073 0.000137329 4.75005C0.000137329 4.82937 0.0217002 4.90719 0.0625194 4.9752C0.103338 5.04321 0.161878 5.09884 0.231876 5.13614L1.75 5.94606V8.59403C1.74955 8.80893 1.82864 9.0164 1.97203 9.17646C2.68844 9.97435 4.29352 11.3126 7 11.3126C7.89739 11.32 8.78808 11.1574 9.625 10.8335V6.64607L9.35156 6.50005L7 7.75403L2.39695 5.29692L1.36719 4.75005L7 1.74606L12.6328 4.75005L11.6058 5.29692H11.6025L10.2812 6.00458C10.3478 6.04299 10.403 6.09823 10.4414 6.16476C10.4798 6.23129 10.5 6.30675 10.5 6.38357V10.4108C11.0705 10.0814 11.586 9.66496 12.028 9.17646C12.1714 9.0164 12.2505 8.80893 12.25 8.59403V5.94606L13.7681 5.13614C13.8381 5.09884 13.8967 5.04321 13.9375 4.9752C13.9783 4.90719 13.9999 4.82937 13.9999 4.75005C13.9999 4.67073 13.9783 4.59291 13.9375 4.5249C13.8967 4.45689 13.8381 4.40126 13.7681 4.36396Z" fill="url(#paint0_linear_978_19)"/>
<defs>
<linearGradient id="paint0_linear_978_19" x1="7.36361" y1="5.86376" x2="7.68179" y2="17.9547" gradientUnits="userSpaceOnUse">
<stop stop-color="#2EB75B"/>
<stop offset="1" stop-color="white"/>
</linearGradient>
</defs>
</svg>
