<svg width="12" height="13" viewBox="0 0 12 13" fill="none" xmlns="http://www.w3.org/2000/svg">
<path d="M11.6875 6.49998C11.6875 5.37508 11.354 4.27544 10.729 3.34012C10.1041 2.4048 9.2158 1.6758 8.17653 1.24532C7.13727 0.81484 5.99369 0.702208 4.89041 0.92167C3.78713 1.14113 2.7737 1.68283 1.97829 2.47826C1.18286 3.27367 0.641162 4.2871 0.4217 5.39038C0.202239 6.49366 0.31487 7.63724 0.745352 8.6765C1.17583 9.71577 1.90483 10.604 2.84015 11.229C3.77547 11.8539 4.87511 12.1875 6.00001 12.1875H6.00493C7.5125 12.1862 8.95787 11.5864 10.0234 10.5199C11.089 9.45344 11.6875 8.00754 11.6875 6.49998ZM1.68954 4.36279L4.49009 4.87412L1.55118 8.33365C1.29157 7.69976 1.16966 7.01793 1.19351 6.33335C1.21736 5.64877 1.38644 4.97708 1.68954 4.36279ZM10.4488 4.66576C10.7085 5.29975 10.8304 5.98167 10.8065 6.66633C10.7827 7.351 10.6136 8.02278 10.3105 8.63717L7.50993 8.12584L10.4488 4.66576ZM10.007 3.83451L8.1629 6.00779L6.63602 1.73013C7.68426 1.86723 8.65744 2.34805 9.40321 3.09732C9.62816 3.32265 9.83038 3.56957 10.007 3.83451ZM5.6954 1.69787L6.65298 4.37756L2.18829 3.56435C2.3144 3.39998 2.45085 3.24381 2.59681 3.09678C3.42323 2.26636 4.52596 1.76852 5.6954 1.69787ZM1.99306 9.16545L3.83712 6.99217L5.36399 11.2676C4.68467 11.1771 4.03252 10.9425 3.45118 10.5796C2.86983 10.2167 2.3727 9.73382 1.99306 9.16326V9.16545ZM6.30462 11.3015L5.34704 8.62185L6.60923 8.85154L9.80954 9.43615C9.39269 9.98019 8.86384 10.4283 8.25877 10.7503C7.6537 11.0722 6.98654 11.2604 6.30243 11.3021L6.30462 11.3015Z" fill="#2EB75B"/>
</svg>
