<svg width="12" height="14" viewBox="0 0 12 14" fill="none" xmlns="http://www.w3.org/2000/svg">
<path d="M6 6.5C5.57975 6.50014 5.17358 6.65151 4.85574 6.92644C4.53789 7.20137 4.3296 7.58149 4.26892 7.99734C4.20825 8.41319 4.29925 8.83698 4.52529 9.19127C4.75133 9.54555 5.09731 9.80666 5.5 9.92688V11C5.5 11.1326 5.55268 11.2598 5.64645 11.3536C5.74021 11.4473 5.86739 11.5 6 11.5C6.13261 11.5 6.25979 11.4473 6.35355 11.3536C6.44732 11.2598 6.5 11.1326 6.5 11V9.92688C6.90269 9.80666 7.24867 9.54555 7.47471 9.19127C7.70075 8.83698 7.79175 8.41319 7.73108 7.99734C7.6704 7.58149 7.46211 7.20137 7.14426 6.92644C6.82642 6.65151 6.42025 6.50014 6 6.5ZM6 9C5.85166 9 5.70666 8.95601 5.58332 8.8736C5.45999 8.79119 5.36386 8.67406 5.30709 8.53701C5.25032 8.39997 5.23547 8.24917 5.26441 8.10368C5.29335 7.9582 5.36478 7.82456 5.46967 7.71967C5.57456 7.61478 5.7082 7.54335 5.85368 7.51441C5.99917 7.48547 6.14997 7.50033 6.28701 7.55709C6.42406 7.61386 6.54119 7.70999 6.6236 7.83332C6.70601 7.95666 6.75 8.10166 6.75 8.25C6.75 8.44891 6.67098 8.63968 6.53033 8.78033C6.38968 8.92098 6.19891 9 6 9ZM11 4.5H9V3C9 2.20435 8.68393 1.44129 8.12132 0.87868C7.55871 0.31607 6.79565 0 6 0C5.20435 0 4.44129 0.31607 3.87868 0.87868C3.31607 1.44129 3 2.20435 3 3V4.5H1C0.734784 4.5 0.48043 4.60536 0.292893 4.79289C0.105357 4.98043 0 5.23478 0 5.5V12.5C0 12.7652 0.105357 13.0196 0.292893 13.2071C0.48043 13.3946 0.734784 13.5 1 13.5H11C11.2652 13.5 11.5196 13.3946 11.7071 13.2071C11.8946 13.0196 12 12.7652 12 12.5V5.5C12 5.23478 11.8946 4.98043 11.7071 4.79289C11.5196 4.60536 11.2652 4.5 11 4.5ZM4 3C4 2.46957 4.21071 1.96086 4.58579 1.58579C4.96086 1.21071 5.46957 1 6 1C6.53043 1 7.03914 1.21071 7.41421 1.58579C7.78929 1.96086 8 2.46957 8 3V4.5H4V3ZM11 12.5H1V5.5H11V12.5Z" fill="#535966"/>
</svg>
