<svg width="24" height="24" viewBox="0 0 24 24" fill="none" xmlns="http://www.w3.org/2000/svg">
<g clip-path="url(#clip0_732_13311)">
<path d="M24 12C24 5.37262 18.6274 0 12 0C5.37262 0 0 5.37262 0 12C0 17.9895 4.38825 22.954 10.125 23.8542V15.4687H7.07812V12H10.125V9.35625C10.125 6.34875 11.9166 4.6875 14.6576 4.6875C15.9705 4.6875 17.3438 4.92187 17.3438 4.92187V7.875H15.8306C14.3399 7.875 13.875 8.80003 13.875 9.74906V12H17.2031L16.6711 15.4687H13.875V23.8542C19.6117 22.954 24 17.9896 24 12Z" fill="white"/>
<path d="M16.6709 15.4688L17.2029 12H13.8748V9.74906C13.8748 8.79994 14.3397 7.875 15.8304 7.875H17.3436V4.92188C17.3436 4.92188 15.9703 4.6875 14.6573 4.6875C11.9164 4.6875 10.1248 6.34875 10.1248 9.35625V12H7.07794V15.4688H10.1248V23.8542C10.7451 23.9514 11.372 24.0001 11.9998 24C12.6277 24.0001 13.2545 23.9514 13.8748 23.8542V15.4688H16.6709Z" fill="#9E2447"/>
</g>
<defs>
<clipPath id="clip0_732_13311">
<rect width="24" height="24" fill="white"/>
</clipPath>
</defs>
</svg>
