<svg width="24" height="24" viewBox="0 0 24 24" fill="none" xmlns="http://www.w3.org/2000/svg">
<g clip-path="url(#clip0_732_13315)">
<path d="M0.603626 11.8563C0.603068 13.8728 1.12995 15.8417 2.13181 17.5771L0.507812 23.5066L6.57591 21.9156C8.25427 22.8292 10.1347 23.308 12.0457 23.3081H12.0507C18.3591 23.3081 23.4942 18.1748 23.4969 11.8653C23.4981 8.80792 22.3086 5.93295 20.1473 3.76997C17.9863 1.60718 15.1124 0.415458 12.0502 0.414062C5.74112 0.414062 0.606324 5.54709 0.603719 11.8563" fill="white"/>
<path d="M0.193285 11.8527C0.192634 13.9417 0.738401 15.981 1.77598 17.7786L0.09375 23.9207L6.37942 22.2726C8.11133 23.2168 10.0613 23.7147 12.0455 23.7154H12.0506C18.5853 23.7154 23.9049 18.3975 23.9077 11.8621C23.9088 8.69488 22.6764 5.71656 20.4379 3.47609C18.1991 1.23591 15.2224 0.00130233 12.0506 0C5.51477 0 0.19589 5.31721 0.193285 11.8527ZM3.93663 17.469L3.70194 17.0965C2.71533 15.5277 2.19459 13.7149 2.19533 11.8534C2.19738 6.4213 6.61822 2.00186 12.0543 2.00186C14.6869 2.00298 17.1609 3.02921 19.0217 4.89116C20.8825 6.7533 21.9064 9.22865 21.9058 11.8614C21.9033 17.2935 17.4824 21.7135 12.0506 21.7135H12.0467C10.278 21.7126 8.54342 21.2376 7.03068 20.34L6.67068 20.1265L2.94063 21.1045L3.93663 17.469Z" fill="#9E2447"/>
<path d="M9.08483 6.89771C8.86288 6.4044 8.6293 6.39445 8.41823 6.3858C8.24539 6.37836 8.04781 6.37892 7.85041 6.37892C7.65283 6.37892 7.33181 6.45324 7.06046 6.74952C6.78883 7.04608 6.02344 7.76273 6.02344 9.22031C6.02344 10.6779 7.08511 12.0866 7.23311 12.2845C7.3813 12.482 9.28269 15.5689 12.294 16.7564C14.7967 17.7433 15.306 17.547 15.8492 17.4975C16.3925 17.4482 17.6021 16.7811 17.8489 16.0892C18.0959 15.3975 18.0959 14.8046 18.0219 14.6807C17.9478 14.5572 17.7502 14.4831 17.4539 14.335C17.1577 14.1869 15.701 13.4701 15.4295 13.3712C15.1579 13.2724 14.9604 13.2231 14.7628 13.5198C14.5652 13.8159 13.9979 14.4831 13.8249 14.6807C13.6522 14.8787 13.4793 14.9034 13.1831 14.7552C12.8866 14.6065 11.9325 14.2941 10.8005 13.2849C9.91972 12.4996 9.32511 11.5298 9.15227 11.2331C8.97944 10.937 9.13376 10.7764 9.28232 10.6288C9.41544 10.496 9.57869 10.2828 9.72697 10.1099C9.87469 9.93687 9.924 9.81343 10.0228 9.61585C10.1217 9.41808 10.0722 9.24506 9.99823 9.09687C9.924 8.94868 9.34827 7.48347 9.08483 6.89771Z" fill="#9E2447"/>
</g>
<defs>
<clipPath id="clip0_732_13315">
<rect width="23.814" height="24" fill="white" transform="translate(0.09375)"/>
</clipPath>
</defs>
</svg>
