<svg width="24" height="16" viewBox="0 0 24 16" fill="none" xmlns="http://www.w3.org/2000/svg">
<g clip-path="url(#clip0_732_13323)">
<path d="M22.8702 2.49556C22.7397 2.0132 22.4851 1.57346 22.1317 1.22011C21.7784 0.866766 21.3387 0.612143 20.8563 0.4816C19.0905 0 11.9834 0 11.9834 0C11.9834 0 4.87605 0.0145777 3.11018 0.496178C2.62783 0.626729 2.18809 0.881365 1.83475 1.23473C1.48142 1.58809 1.22682 2.02786 1.09632 2.51022C0.562182 5.64782 0.354982 10.4288 1.11098 13.4409C1.2415 13.9232 1.49611 14.363 1.84944 14.7163C2.20277 15.0697 2.6425 15.3243 3.12485 15.4548C4.89072 15.9364 11.9979 15.9364 11.9979 15.9364C11.9979 15.9364 19.105 15.9364 20.8708 15.4548C21.3532 15.3243 21.7929 15.0697 22.1463 14.7163C22.4996 14.363 22.7542 13.9233 22.8848 13.4409C23.4481 10.2988 23.6217 5.5208 22.8702 2.49556Z" fill="white"/>
<path d="M9.72656 11.3836L15.6224 7.96864L9.72656 4.55371V11.3836Z" fill="#9E2447"/>
</g>
<defs>
<clipPath id="clip0_732_13323">
<rect width="22.76" height="16" fill="white" transform="translate(0.617188)"/>
</clipPath>
</defs>
</svg>
