<svg width="24" height="25" viewBox="0 0 24 25" fill="none" xmlns="http://www.w3.org/2000/svg">
<path d="M22.5003 9.5C22.5003 9.69891 22.4213 9.88968 22.2806 10.0303C22.14 10.171 21.9492 10.25 21.7503 10.25H20.2503V11.75C20.2503 11.9489 20.1713 12.1397 20.0306 12.2803C19.89 12.421 19.6992 12.5 19.5003 12.5C19.3014 12.5 19.1106 12.421 18.97 12.2803C18.8293 12.1397 18.7503 11.9489 18.7503 11.75V10.25H17.2503C17.0514 10.25 16.8606 10.171 16.72 10.0303C16.5793 9.88968 16.5003 9.69891 16.5003 9.5C16.5003 9.30109 16.5793 9.11032 16.72 8.96967C16.8606 8.82902 17.0514 8.75 17.2503 8.75H18.7503V7.25C18.7503 7.05109 18.8293 6.86032 18.97 6.71967C19.1106 6.57902 19.3014 6.5 19.5003 6.5C19.6992 6.5 19.89 6.57902 20.0306 6.71967C20.1713 6.86032 20.2503 7.05109 20.2503 7.25V8.75H21.7503C21.9492 8.75 22.14 8.82902 22.2806 8.96967C22.4213 9.11032 22.5003 9.30109 22.5003 9.5ZM13.5003 5.75H14.2503V6.5C14.2503 6.69891 14.3293 6.88968 14.47 7.03033C14.6106 7.17098 14.8014 7.25 15.0003 7.25C15.1992 7.25 15.39 7.17098 15.5306 7.03033C15.6713 6.88968 15.7503 6.69891 15.7503 6.5V5.75H16.5003C16.6992 5.75 16.89 5.67098 17.0306 5.53033C17.1713 5.38968 17.2503 5.19891 17.2503 5C17.2503 4.80109 17.1713 4.61032 17.0306 4.46967C16.89 4.32902 16.6992 4.25 16.5003 4.25H15.7503V3.5C15.7503 3.30109 15.6713 3.11032 15.5306 2.96967C15.39 2.82902 15.1992 2.75 15.0003 2.75C14.8014 2.75 14.6106 2.82902 14.47 2.96967C14.3293 3.11032 14.2503 3.30109 14.2503 3.5V4.25H13.5003C13.3014 4.25 13.1106 4.32902 12.97 4.46967C12.8293 4.61032 12.7503 4.80109 12.7503 5C12.7503 5.19891 12.8293 5.38968 12.97 5.53033C13.1106 5.67098 13.3014 5.75 13.5003 5.75ZM19.6072 14.5934C18.2769 14.8563 16.9023 14.7874 15.605 14.3929C14.3076 13.9985 13.1274 13.2906 12.1686 12.3317C11.2097 11.3729 10.5018 10.1927 10.1073 8.8953C9.71288 7.59795 9.64402 6.22341 9.90684 4.89313C9.93259 4.76258 9.92314 4.62753 9.87947 4.50184C9.83579 4.37614 9.75946 4.26434 9.65831 4.17788C9.55716 4.09142 9.43483 4.03344 9.30387 4.00987C9.17291 3.9863 9.03804 3.99799 8.91309 4.04375C7.49291 4.56306 6.22646 5.43183 5.2307 6.56985C4.23495 7.70786 3.54198 9.07843 3.21579 10.555C2.8896 12.0315 2.94071 13.5665 3.3644 15.0181C3.78809 16.4696 4.57069 17.7911 5.63995 18.8603C6.7092 19.9296 8.03063 20.7122 9.48222 21.1359C10.9338 21.5596 12.4687 21.6107 13.9453 21.2845C15.4219 20.9583 16.7924 20.2653 17.9304 19.2696C19.0684 18.2738 19.9372 17.0074 20.4565 15.5872C20.5023 15.4622 20.514 15.3274 20.4904 15.1964C20.4668 15.0654 20.4089 14.9431 20.3224 14.842C20.2359 14.7408 20.1241 14.6645 19.9984 14.6208C19.8728 14.5771 19.7377 14.5677 19.6072 14.5934Z" fill="url(#paint0_linear_732_12497)"/>
<defs>
<linearGradient id="paint0_linear_732_12497" x1="3.00391" y1="3.34035" x2="27.4062" y2="9.79806" gradientUnits="userSpaceOnUse">
<stop stop-color="#29A0B6"/>
<stop offset="1" stop-color="#B0C343"/>
</linearGradient>
</defs>
</svg>
