<svg width="20" height="19" viewBox="0 0 20 19" fill="none" xmlns="http://www.w3.org/2000/svg">
<path d="M19.5003 7C19.5003 7.19891 19.4213 7.38968 19.2806 7.53033C19.14 7.67098 18.9492 7.75 18.7503 7.75H17.2503V9.25C17.2503 9.44891 17.1713 9.63968 17.0306 9.78033C16.89 9.92098 16.6992 10 16.5003 10C16.3014 10 16.1106 9.92098 15.97 9.78033C15.8293 9.63968 15.7503 9.44891 15.7503 9.25V7.75H14.2503C14.0514 7.75 13.8606 7.67098 13.72 7.53033C13.5793 7.38968 13.5003 7.19891 13.5003 7C13.5003 6.80109 13.5793 6.61032 13.72 6.46967C13.8606 6.32902 14.0514 6.25 14.2503 6.25H15.7503V4.75C15.7503 4.55109 15.8293 4.36032 15.97 4.21967C16.1106 4.07902 16.3014 4 16.5003 4C16.6992 4 16.89 4.07902 17.0306 4.21967C17.1713 4.36032 17.2503 4.55109 17.2503 4.75V6.25H18.7503C18.9492 6.25 19.14 6.32902 19.2806 6.46967C19.4213 6.61032 19.5003 6.80109 19.5003 7ZM10.5003 3.25H11.2503V4C11.2503 4.19891 11.3293 4.38968 11.47 4.53033C11.6106 4.67098 11.8014 4.75 12.0003 4.75C12.1992 4.75 12.39 4.67098 12.5306 4.53033C12.6713 4.38968 12.7503 4.19891 12.7503 4V3.25H13.5003C13.6992 3.25 13.89 3.17098 14.0306 3.03033C14.1713 2.88968 14.2503 2.69891 14.2503 2.5C14.2503 2.30109 14.1713 2.11032 14.0306 1.96967C13.89 1.82902 13.6992 1.75 13.5003 1.75H12.7503V1C12.7503 0.801088 12.6713 0.610322 12.5306 0.46967C12.39 0.329018 12.1992 0.25 12.0003 0.25C11.8014 0.25 11.6106 0.329018 11.47 0.46967C11.3293 0.610322 11.2503 0.801088 11.2503 1V1.75H10.5003C10.3014 1.75 10.1106 1.82902 9.96995 1.96967C9.8293 2.11032 9.75028 2.30109 9.75028 2.5C9.75028 2.69891 9.8293 2.88968 9.96995 3.03033C10.1106 3.17098 10.3014 3.25 10.5003 3.25ZM16.6072 12.0934C15.2769 12.3563 13.9023 12.2874 12.605 11.8929C11.3076 11.4985 10.1274 10.7906 9.16856 9.83172C8.20973 8.87289 7.5018 7.69266 7.10734 6.3953C6.71288 5.09795 6.64402 3.72341 6.90684 2.39313C6.93259 2.26258 6.92314 2.12753 6.87947 2.00184C6.83579 1.87614 6.75946 1.76434 6.65831 1.67788C6.55716 1.59142 6.43483 1.53344 6.30387 1.50987C6.17291 1.4863 6.03804 1.49799 5.91309 1.54375C4.49291 2.06306 3.22646 2.93183 2.2307 4.06985C1.23495 5.20786 0.541977 6.57843 0.21579 8.05498C-0.110397 9.53154 -0.0592879 11.0665 0.364399 12.5181C0.788086 13.9696 1.57069 15.2911 2.63995 16.3603C3.7092 17.4296 5.03063 18.2122 6.48222 18.6359C7.9338 19.0596 9.46875 19.1107 10.9453 18.7845C12.4219 18.4583 13.7924 17.7653 14.9304 16.7696C16.0684 15.7738 16.9372 14.5074 17.4565 13.0872C17.5023 12.9622 17.514 12.8274 17.4904 12.6964C17.4668 12.5654 17.4089 12.4431 17.3224 12.342C17.2359 12.2408 17.1241 12.1645 16.9984 12.1208C16.8728 12.0771 16.7377 12.0677 16.6072 12.0934Z" fill="url(#paint0_linear_732_13393)"/>
<defs>
<linearGradient id="paint0_linear_732_13393" x1="0.00390664" y1="0.840354" x2="24.4062" y2="7.29806" gradientUnits="userSpaceOnUse">
<stop stop-color="#29A0B6"/>
<stop offset="1" stop-color="#B0C343"/>
</linearGradient>
</defs>
</svg>
