<svg width="40" height="40" viewBox="0 0 40 40" fill="none" xmlns="http://www.w3.org/2000/svg">
<path d="M39.2 37.0968C39.3677 37.3197 39.4699 37.5849 39.4952 37.8626C39.5205 38.1403 39.4679 38.4196 39.3433 38.6691C39.2186 38.9186 39.0269 39.1284 38.7896 39.2749C38.5523 39.4215 38.2789 39.499 38 39.4987H2C1.72143 39.4987 1.44837 39.4211 1.2114 39.2747C0.97444 39.1282 0.782939 38.9187 0.65836 38.6695C0.53378 38.4204 0.481045 38.1414 0.506062 37.864C0.531079 37.5865 0.63286 37.3215 0.800001 37.0987C2.12822 35.3179 3.89942 33.9158 5.9375 33.0318C4.82033 32.0122 4.03755 30.6786 3.69191 29.2061C3.34626 27.7337 3.45389 26.1911 4.00068 24.7808C4.54748 23.3706 5.50787 22.1587 6.75581 21.3041C8.00376 20.4495 9.48093 19.9922 10.9934 19.9922C12.5059 19.9922 13.9831 20.4495 15.2311 21.3041C16.479 22.1587 17.4394 23.3706 17.9862 24.7808C18.533 26.1911 18.6406 27.7337 18.295 29.2061C17.9493 30.6786 17.1665 32.0122 16.0494 33.0318C17.5198 33.6674 18.856 34.5767 19.9869 35.7112C21.1178 34.5767 22.454 33.6674 23.9244 33.0318C22.8072 32.0122 22.0244 30.6786 21.6788 29.2061C21.3331 27.7337 21.4408 26.1911 21.9876 24.7808C22.5343 23.3706 23.4947 22.1587 24.7427 21.3041C25.9906 20.4495 27.4678 19.9922 28.9803 19.9922C30.4928 19.9922 31.97 20.4495 33.2179 21.3041C34.4659 22.1587 35.4263 23.3706 35.9731 24.7808C36.5199 26.1911 36.6275 27.7337 36.2818 29.2061C35.9362 30.6786 35.1534 32.0122 34.0363 33.0318C36.0838 33.9112 37.8645 35.313 39.2 37.0968ZM1.1 19.6987C1.25759 19.8169 1.43691 19.9029 1.62773 19.9518C1.81855 20.0007 2.01713 20.0115 2.21213 19.9836C2.40714 19.9558 2.59474 19.8898 2.76424 19.7894C2.93374 19.689 3.08181 19.5563 3.2 19.3987C4.10818 18.1878 5.28583 17.2049 6.63967 16.528C7.99351 15.8511 9.48636 15.4987 11 15.4987C12.5136 15.4987 14.0065 15.8511 15.3603 16.528C16.7142 17.2049 17.8918 18.1878 18.8 19.3987C18.9397 19.585 19.1209 19.7362 19.3292 19.8403C19.5375 19.9445 19.7671 19.9987 20 19.9987C20.2329 19.9987 20.4625 19.9445 20.6708 19.8403C20.8791 19.7362 21.0603 19.585 21.2 19.3987C22.1082 18.1878 23.2858 17.2049 24.6397 16.528C25.9935 15.8511 27.4864 15.4987 29 15.4987C30.5136 15.4987 32.0065 15.8511 33.3603 16.528C34.7142 17.2049 35.8918 18.1878 36.8 19.3987C36.9183 19.5563 37.0665 19.689 37.2361 19.7893C37.4057 19.8896 37.5934 19.9556 37.7885 19.9833C37.9836 20.0111 38.1823 20.0002 38.3731 19.9512C38.564 19.9022 38.7434 19.8161 38.9009 19.6978C39.0585 19.5794 39.1913 19.4313 39.2916 19.2616C39.3919 19.092 39.4578 18.9043 39.4856 18.7092C39.5134 18.5141 39.5024 18.3155 39.4534 18.1246C39.4044 17.9338 39.3183 17.7544 39.2 17.5968C37.8717 15.8166 36.1005 14.4151 34.0625 13.5318C35.1797 12.5122 35.9624 11.1786 36.3081 9.70614C36.6537 8.23365 36.5461 6.69106 35.9993 5.28084C35.4525 3.87063 34.4921 2.65868 33.2442 1.80409C31.9962 0.949497 30.5191 0.492188 29.0066 0.492188C27.4941 0.492187 26.0169 0.949497 24.7689 1.80409C23.521 2.65868 22.5606 3.87063 22.0138 5.28084C21.467 6.69106 21.3594 8.23365 21.705 9.70614C22.0507 11.1786 22.8335 12.5122 23.9506 13.5318C22.4802 14.1674 21.144 15.0767 20.0131 16.2112C18.8822 15.0767 17.546 14.1674 16.0756 13.5318C17.1928 12.5122 17.9756 11.1786 18.3212 9.70614C18.6669 8.23365 18.5592 6.69106 18.0124 5.28084C17.4657 3.87063 16.5053 2.65868 15.2573 1.80409C14.0094 0.949497 12.5322 0.492188 11.0197 0.492188C9.50718 0.492187 8.03001 0.949497 6.78206 1.80409C5.53412 2.65868 4.57373 3.87063 4.02693 5.28084C3.48014 6.69106 3.37251 8.23365 3.71816 9.70614C4.0638 11.1786 4.84658 12.5122 5.96375 13.5318C3.91611 14.4119 2.13547 15.8143 0.800001 17.5987C0.681811 17.7563 0.595817 17.9356 0.54693 18.1264C0.498043 18.3172 0.487219 18.5158 0.515076 18.7108C0.542934 18.9058 0.608928 19.0934 0.709289 19.2629C0.809651 19.4324 0.942415 19.5805 1.1 19.6987Z" fill="url(#paint0_linear_816_16083)"/>
<defs>
<linearGradient id="paint0_linear_816_16083" x1="20.0003" y1="11.6923" x2="20.0003" y2="52.523" gradientUnits="userSpaceOnUse">
<stop stop-color="#000DFF"/>
<stop offset="1" stop-color="white"/>
</linearGradient>
</defs>
</svg>
