<svg width="34" height="40" viewBox="0 0 34 40" fill="none" xmlns="http://www.w3.org/2000/svg">
<path d="M33.084 19.7231C33.0852 20.2324 32.9546 20.7334 32.7049 21.1772C32.4552 21.6211 32.0949 21.9928 31.659 22.2562L4.64398 38.7825C4.18852 39.0614 3.66686 39.2136 3.13288 39.2235C2.5989 39.2334 2.07196 39.1006 1.60648 38.8387C1.14544 38.5809 0.761377 38.205 0.493792 37.7496C0.226206 37.2942 0.0847547 36.7757 0.0839844 36.2475V3.19873C0.0847547 2.67051 0.226206 2.15204 0.493792 1.69661C0.761377 1.24119 1.14544 0.865258 1.60648 0.607479C2.07196 0.345632 2.5989 0.212794 3.13288 0.222682C3.66686 0.232571 4.18852 0.384828 4.64398 0.663729L31.659 17.19C32.0949 17.4534 32.4552 17.8251 32.7049 18.269C32.9546 18.7128 33.0852 19.2138 33.084 19.7231Z" fill="white"/>
</svg>
