<svg width="16" height="17" viewBox="0 0 16 17" fill="none" xmlns="http://www.w3.org/2000/svg">
<path d="M15.8125 8.5C15.8125 8.74864 15.7137 8.9871 15.5379 9.16291C15.3621 9.33873 15.1236 9.4375 14.875 9.4375H8.9375V15.375C8.9375 15.6236 8.83873 15.8621 8.66291 16.0379C8.4871 16.2137 8.24864 16.3125 8 16.3125C7.75136 16.3125 7.5129 16.2137 7.33709 16.0379C7.16127 15.8621 7.0625 15.6236 7.0625 15.375V9.4375H1.125C0.87636 9.4375 0.637903 9.33873 0.462087 9.16291C0.286272 8.9871 0.1875 8.74864 0.1875 8.5C0.1875 8.25136 0.286272 8.0129 0.462087 7.83709C0.637903 7.66127 0.87636 7.5625 1.125 7.5625H7.0625V1.625C7.0625 1.37636 7.16127 1.1379 7.33709 0.962087C7.5129 0.786272 7.75136 0.6875 8 0.6875C8.24864 0.6875 8.4871 0.786272 8.66291 0.962087C8.83873 1.1379 8.9375 1.37636 8.9375 1.625V7.5625H14.875C15.1236 7.5625 15.3621 7.66127 15.5379 7.83709C15.7137 8.0129 15.8125 8.25136 15.8125 8.5Z" fill="url(#paint0_linear_978_761)"/>
<defs>
<linearGradient id="paint0_linear_978_761" x1="0.1875" y1="2.75551" x2="15.5437" y2="5.02988" gradientUnits="userSpaceOnUse">
<stop stop-color="#DF186A"/>
<stop offset="1" stop-color="#FA6F21"/>
</linearGradient>
</defs>
</svg>
