<svg width="26" height="52" viewBox="0 0 26 52" fill="none" xmlns="http://www.w3.org/2000/svg">
<path d="M14.9285 18.6606C13.1661 20.0083 11.1964 20.6822 9.01929 20.6822C6.73855 20.6822 4.66515 19.8528 2.79909 18.1941C0.933029 16.4317 0 14.0473 0 11.0409C0 7.82708 1.08854 5.1835 3.26561 3.1101C5.44268 1.0367 8.24177 0 11.6629 0C16.1207 0 19.49 1.81423 21.7707 5.44268C24.0514 9.07113 25.1918 13.3734 25.1918 18.3496C25.1918 24.5698 23.3776 30.7381 19.7491 36.8547C16.1207 43.0749 10.5225 47.9992 2.95459 51.6277L0.311011 47.118C5.39084 44.3189 9.3303 41.0533 12.1294 37.3212C14.9285 33.5891 16.328 29.4423 16.328 24.8808C16.328 24.1551 16.2244 23.2221 16.017 22.0817C15.9133 20.9413 15.5505 19.801 14.9285 18.6606Z" fill="#F5F5F5"/>
</svg>
