<svg width="8" height="15" viewBox="0 0 8 15" fill="none" xmlns="http://www.w3.org/2000/svg">
<path d="M1.31741 0.932953L7.56741 7.18295C7.62552 7.241 7.67162 7.30993 7.70308 7.3858C7.73453 7.46168 7.75072 7.54301 7.75072 7.62514C7.75072 7.70728 7.73453 7.7886 7.70308 7.86448C7.67162 7.94035 7.62552 8.00928 7.56741 8.06733L1.31741 14.3173C1.20014 14.4346 1.04108 14.5005 0.875225 14.5005C0.709373 14.5005 0.550313 14.4346 0.433038 14.3173C0.315762 14.2001 0.249878 14.041 0.249878 13.8751C0.249878 13.7093 0.315762 13.5502 0.433038 13.433L6.24163 7.62514L0.433037 1.81733C0.374968 1.75926 0.328905 1.69032 0.297479 1.61445C0.266052 1.53858 0.249877 1.45726 0.249877 1.37514C0.249877 1.29302 0.266052 1.2117 0.297479 1.13583C0.328905 1.05996 0.374968 0.991021 0.433037 0.932953C0.491106 0.874884 0.560044 0.828821 0.635915 0.797395C0.711785 0.765968 0.793103 0.749792 0.875225 0.749792C0.957347 0.749792 1.03866 0.765968 1.11454 0.797395C1.19041 0.828821 1.25934 0.874884 1.31741 0.932953Z" fill="#7B7B7B"/>
</svg>
