<svg width="15" height="16" viewBox="0 0 15 16" fill="none" xmlns="http://www.w3.org/2000/svg">
<path d="M5.9995 1.45146C6.8335 1.45146 7.62617 1.63146 8.33884 1.95546C7.99493 2.26042 7.76657 2.67454 7.69217 3.12812C6.83494 2.76438 5.88335 2.68645 4.97837 2.90589C4.07338 3.12533 3.26316 3.63045 2.66774 4.34642C2.07232 5.0624 1.72338 5.95113 1.67261 6.88095C1.62185 7.81077 1.87196 8.73221 2.38589 9.50876C2.89982 10.2853 3.65023 10.8756 4.52595 11.1923C5.40166 11.5089 6.35608 11.5351 7.24781 11.2668C8.13954 10.9986 8.92114 10.4502 9.4768 9.70295C10.0325 8.9557 10.3326 8.04933 10.3328 7.11812L10.3295 6.93879C10.6868 7.25879 11.1555 7.44879 11.6568 7.45146C11.5905 8.60845 11.1694 9.71694 10.4508 10.6261L12.8855 13.0608C13.0069 13.1865 13.0741 13.3549 13.0726 13.5297C13.0711 13.7045 13.001 13.8717 12.8774 13.9953C12.7538 14.1189 12.5866 14.1891 12.4118 14.1906C12.237 14.1921 12.0686 14.1249 11.9428 14.0035L9.50817 11.5688C8.79849 12.1281 7.96535 12.5096 7.07826 12.6814C6.19118 12.8532 5.27586 12.8104 4.40867 12.5566C3.54149 12.3027 2.74758 11.8452 2.09317 11.2221C1.43877 10.599 0.942857 9.82853 0.646797 8.97483C0.350737 8.12113 0.263117 7.20901 0.391249 6.31456C0.51938 5.42012 0.859547 4.56928 1.38337 3.83303C1.90719 3.09679 2.59948 2.49648 3.40249 2.08219C4.20549 1.6679 5.09593 1.45164 5.9995 1.45146ZM5.9995 3.45146C6.6175 3.45146 7.20017 3.60479 7.7115 3.87479C7.7845 4.21173 7.94335 4.52407 8.17265 4.78152C8.40194 5.03897 8.69389 5.23277 9.02017 5.34412L9.25217 5.42346C9.62207 6.13319 9.7496 6.94446 9.61529 7.73345C9.48098 8.52244 9.09221 9.24582 8.50831 9.79318C7.92442 10.3405 7.17746 10.6818 6.38145 10.765C5.58543 10.8481 4.78409 10.6685 4.0997 10.2536C3.41531 9.83863 2.88548 9.21118 2.59106 8.46696C2.29665 7.72274 2.25382 6.90262 2.46911 6.13178C2.6844 5.36094 3.146 4.68171 3.78344 4.19776C4.42088 3.7138 5.19916 3.4517 5.9995 3.45146ZM11.6662 0.78479C11.7909 0.78479 11.9131 0.819775 12.0189 0.885771C12.1248 0.951766 12.21 1.04613 12.2648 1.15812L12.2968 1.23612L12.3835 1.48812C12.475 1.75625 12.6224 2.00188 12.8159 2.20875C13.0094 2.41563 13.2447 2.57902 13.5062 2.68812L13.6295 2.73479L13.8815 2.82079C14.0063 2.86336 14.1157 2.94199 14.1958 3.04672C14.2759 3.15145 14.3231 3.27759 14.3316 3.40917C14.34 3.54076 14.3092 3.67189 14.2431 3.78598C14.177 3.90007 14.0785 3.99199 13.9602 4.05012L13.8815 4.08212L13.6295 4.16879C13.3614 4.26026 13.1157 4.40764 12.9089 4.60119C12.702 4.79473 12.5386 5.03001 12.4295 5.29146L12.3828 5.41479L12.2968 5.66679C12.2542 5.79155 12.1755 5.90086 12.0707 5.9809C11.966 6.06094 11.8398 6.10812 11.7082 6.11647C11.5766 6.12482 11.4455 6.09396 11.3315 6.0278C11.2174 5.96165 11.1256 5.86316 11.0675 5.74479L11.0355 5.66679L10.9488 5.41479C10.8574 5.14667 10.71 4.90104 10.5164 4.69416C10.3229 4.48729 10.0876 4.32389 9.82617 4.21479L9.70284 4.16812L9.45084 4.08212C9.32604 4.03955 9.21668 3.96092 9.13657 3.85619C9.05646 3.75146 9.00921 3.62533 9.00079 3.49374C8.99237 3.36215 9.02316 3.23102 9.08926 3.11694C9.15537 3.00285 9.25382 2.91092 9.37217 2.85279L9.45084 2.82079L9.70284 2.73412C9.97096 2.64266 10.2166 2.49527 10.4235 2.30173C10.6303 2.10819 10.7937 1.8729 10.9028 1.61146L10.9495 1.48812L11.0355 1.23612C11.0804 1.10451 11.1654 0.990247 11.2785 0.909316C11.3915 0.828386 11.5271 0.784846 11.6662 0.78479Z" fill="url(#paint0_linear_978_1005)"/>
<defs>
<linearGradient id="paint0_linear_978_1005" x1="0.333985" y1="1.20696" x2="17.8462" y2="5.86017" gradientUnits="userSpaceOnUse">
<stop stop-color="#29A0B6"/>
<stop offset="1" stop-color="#B0C343"/>
</linearGradient>
</defs>
</svg>
