<svg width="36" height="41" viewBox="0 0 36 41" fill="none" xmlns="http://www.w3.org/2000/svg">
<path d="M33 14H12V9.5C12 7.9087 12.6321 6.38258 13.7574 5.25736C14.8826 4.13214 16.4087 3.5 18 3.5C20.8819 3.5 23.475 5.5625 24.03 8.29813C24.1124 8.68469 24.344 9.02311 24.6746 9.23983C25.0051 9.45654 25.4078 9.53405 25.7952 9.45549C26.1825 9.37693 26.5232 9.14866 26.7432 8.82029C26.9632 8.49192 27.0447 8.09 26.97 7.70187C26.1225 3.52812 22.35 0.5 18 0.5C15.6138 0.502482 13.3261 1.45149 11.6388 3.13878C9.95149 4.82607 9.00248 7.11381 9 9.5V14H3C2.20435 14 1.44129 14.3161 0.87868 14.8787C0.31607 15.4413 0 16.2044 0 17V38C0 38.7956 0.31607 39.5587 0.87868 40.1213C1.44129 40.6839 2.20435 41 3 41H33C33.7956 41 34.5587 40.6839 35.1213 40.1213C35.6839 39.5587 36 38.7956 36 38V17C36 16.2044 35.6839 15.4413 35.1213 14.8787C34.5587 14.3161 33.7956 14 33 14ZM28.5 35H7.5C7.10218 35 6.72064 34.842 6.43934 34.5607C6.15804 34.2794 6 33.8978 6 33.5C6 33.1022 6.15804 32.7206 6.43934 32.4393C6.72064 32.158 7.10218 32 7.5 32H28.5C28.8978 32 29.2794 32.158 29.5607 32.4393C29.842 32.7206 30 33.1022 30 33.5C30 33.8978 29.842 34.2794 29.5607 34.5607C29.2794 34.842 28.8978 35 28.5 35ZM28.5 29H7.5C7.10218 29 6.72064 28.842 6.43934 28.5607C6.15804 28.2794 6 27.8978 6 27.5C6 27.1022 6.15804 26.7206 6.43934 26.4393C6.72064 26.158 7.10218 26 7.5 26H28.5C28.8978 26 29.2794 26.158 29.5607 26.4393C29.842 26.7206 30 27.1022 30 27.5C30 27.8978 29.842 28.2794 29.5607 28.5607C29.2794 28.842 28.8978 29 28.5 29ZM28.5 23H7.5C7.10218 23 6.72064 22.842 6.43934 22.5607C6.15804 22.2794 6 21.8978 6 21.5C6 21.1022 6.15804 20.7206 6.43934 20.4393C6.72064 20.158 7.10218 20 7.5 20H28.5C28.8978 20 29.2794 20.158 29.5607 20.4393C29.842 20.7206 30 21.1022 30 21.5C30 21.8978 29.842 22.2794 29.5607 22.5607C29.2794 22.842 28.8978 23 28.5 23Z" fill="url(#paint0_linear_816_16077)"/>
<defs>
<linearGradient id="paint0_linear_816_16077" x1="20" y1="26" x2="21.0001" y2="64.5" gradientUnits="userSpaceOnUse">
<stop stop-color="#289C88"/>
<stop offset="0.271869" stop-color="#62B7A9"/>
<stop offset="1" stop-color="white"/>
</linearGradient>
</defs>
</svg>
