<svg width="38" height="38" viewBox="0 0 38 38" fill="none" xmlns="http://www.w3.org/2000/svg">
<rect width="38" height="38" rx="4.23693" fill="#2C1708"/>
<path d="M27.4674 12.8478L19.2174 10.0978C19.0763 10.0507 18.9237 10.0507 18.7826 10.0978L10.5326 12.8478C10.3957 12.8934 10.2766 12.981 10.1923 13.098C10.1079 13.2151 10.0625 13.3558 10.0625 13.5001V20.3751C10.0625 20.5574 10.1349 20.7323 10.2639 20.8612C10.3928 20.9901 10.5677 21.0626 10.75 21.0626C10.9323 21.0626 11.1072 20.9901 11.2361 20.8612C11.3651 20.7323 11.4375 20.5574 11.4375 20.3751V14.454L14.3241 15.4156C13.5572 16.6546 13.3133 18.1474 13.646 19.5661C13.9788 20.9848 14.8609 22.2135 16.0988 22.9824C14.5519 23.5891 13.2147 24.6865 12.2367 26.187C12.1859 26.2626 12.1505 26.3475 12.1328 26.4369C12.115 26.5263 12.1152 26.6183 12.1334 26.7076C12.1515 26.7969 12.1872 26.8817 12.2384 26.957C12.2896 27.0324 12.3552 27.0969 12.4315 27.1466C12.5079 27.1964 12.5933 27.2305 12.6829 27.247C12.7725 27.2634 12.8645 27.2619 12.9535 27.2425C13.0426 27.2231 13.1268 27.1862 13.2015 27.134C13.2761 27.0817 13.3396 27.0151 13.3883 26.9381C14.6834 24.9512 16.7287 23.8126 19 23.8126C21.2713 23.8126 23.3166 24.9512 24.6117 26.9381C24.7126 27.088 24.8683 27.1921 25.0453 27.2281C25.2224 27.264 25.4064 27.2288 25.5577 27.1302C25.709 27.0315 25.8154 26.8772 25.8539 26.7007C25.8923 26.5242 25.8598 26.3397 25.7633 26.187C24.7853 24.6865 23.443 23.5891 21.9013 22.9824C23.1379 22.2136 24.0192 20.9857 24.3519 19.568C24.6846 18.1503 24.4414 16.6586 23.6759 15.4199L27.4674 14.1566C27.6043 14.111 27.7234 14.0235 27.8078 13.9064C27.8922 13.7893 27.9377 13.6487 27.9377 13.5043C27.9377 13.36 27.8922 13.2194 27.8078 13.1023C27.7234 12.9852 27.6043 12.8977 27.4674 12.8521V12.8478ZM23.125 18.3126C23.1252 18.9647 22.9707 19.6076 22.6744 20.1885C22.378 20.7694 21.9481 21.2717 21.4199 21.6543C20.8918 22.0369 20.2805 22.2888 19.6362 22.3894C18.9918 22.4899 18.3328 22.4363 17.7132 22.2329C17.0936 22.0294 16.5311 21.682 16.0718 21.2191C15.6124 20.7561 15.2694 20.1909 15.0709 19.5697C14.8723 18.9485 14.8238 18.2891 14.9295 17.6456C15.0351 17.0021 15.2918 16.3927 15.6785 15.8676L18.7826 16.8989C18.9237 16.9459 19.0763 16.9459 19.2174 16.8989L22.3215 15.8676C22.8438 16.5758 23.1254 17.4326 23.125 18.3126Z" fill="url(#paint0_linear_816_6197)"/>
<defs>
<linearGradient id="paint0_linear_816_6197" x1="18.9999" y1="15" x2="18.9999" y2="33" gradientUnits="userSpaceOnUse">
<stop stop-color="#FF6A00"/>
<stop offset="1" stop-color="white"/>
</linearGradient>
</defs>
</svg>
