<svg width="13" height="12" viewBox="0 0 13 12" fill="none" xmlns="http://www.w3.org/2000/svg">
<path d="M11.8885 2.58495L6.63845 0.834954C6.54864 0.805015 6.45154 0.805015 6.36173 0.834954L1.11173 2.58495C1.02462 2.61399 0.948849 2.66971 0.895161 2.74421C0.841472 2.8187 0.812585 2.90821 0.812592 3.00003V7.37503C0.812592 7.49106 0.858685 7.60234 0.940732 7.68439C1.02278 7.76644 1.13406 7.81253 1.25009 7.81253C1.36612 7.81253 1.4774 7.76644 1.55945 7.68439C1.6415 7.60234 1.68759 7.49106 1.68759 7.37503V3.60706L3.52454 4.21902C3.03649 5.0075 2.88129 5.95745 3.09303 6.86026C3.30476 7.76308 3.86612 8.54497 4.65384 9.03425C3.66947 9.42035 2.81853 10.1187 2.19619 11.0735C2.16382 11.1217 2.14134 11.1757 2.13005 11.2326C2.11876 11.2895 2.11888 11.348 2.13042 11.4048C2.14195 11.4616 2.16467 11.5156 2.19724 11.5636C2.22982 11.6115 2.2716 11.6525 2.32016 11.6842C2.36873 11.7159 2.4231 11.7376 2.48013 11.7481C2.53715 11.7586 2.59569 11.7576 2.65234 11.7452C2.70899 11.7329 2.76262 11.7094 2.81012 11.6762C2.85761 11.6429 2.89802 11.6005 2.929 11.5515C3.75314 10.2871 5.0547 9.56253 6.50009 9.56253C7.94548 9.56253 9.24705 10.2871 10.0712 11.5515C10.1354 11.6469 10.2345 11.7132 10.3471 11.736C10.4598 11.7589 10.5769 11.7365 10.6732 11.6737C10.7695 11.6109 10.8372 11.5128 10.8616 11.4005C10.8861 11.2881 10.8654 11.1707 10.804 11.0735C10.1817 10.1187 9.32744 9.42035 8.34634 9.03425C9.13331 8.54499 9.69414 7.76361 9.90584 6.86145C10.1175 5.9593 9.96283 5.01001 9.47564 4.22175L11.8885 3.41784C11.9756 3.38882 12.0514 3.33311 12.1051 3.25862C12.1588 3.18412 12.1877 3.09461 12.1877 3.00277C12.1877 2.91093 12.1588 2.82142 12.1051 2.74692C12.0514 2.67242 11.9756 2.61671 11.8885 2.58769V2.58495ZM9.12509 6.06253C9.12521 6.47753 9.02693 6.88665 8.83832 7.25631C8.64971 7.62597 8.37614 7.94564 8.04005 8.18911C7.70397 8.43257 7.31495 8.59287 6.90492 8.65687C6.49488 8.72087 6.07552 8.68675 5.68123 8.55729C5.28694 8.42783 4.92896 8.20673 4.63666 7.91213C4.34437 7.61753 4.12609 7.25783 3.99973 6.86254C3.87337 6.46724 3.84254 6.04762 3.90975 5.6381C3.97697 5.22858 4.14033 4.84083 4.38642 4.50667L6.36173 5.16292C6.45154 5.19286 6.54864 5.19286 6.63845 5.16292L8.61376 4.50667C8.94615 4.9573 9.12536 5.50259 9.12509 6.06253Z" fill="url(#paint0_linear_978_24)"/>
<defs>
<linearGradient id="paint0_linear_978_24" x1="6.50001" y1="3.95455" x2="6.50001" y2="15.4091" gradientUnits="userSpaceOnUse">
<stop stop-color="#FF6A00"/>
<stop offset="1" stop-color="white"/>
</linearGradient>
</defs>
</svg>
