<svg width="39" height="38" viewBox="0 0 39 38" fill="none" xmlns="http://www.w3.org/2000/svg">
<rect x="0.856934" width="38" height="38" rx="4.23693" fill="#092412"/>
<g clip-path="url(#clip0_816_6204)">
<path d="M23.9817 25.8097C24.456 25.6228 24.9156 25.4008 25.3567 25.1454V28.625C25.3567 28.8073 25.2843 28.9822 25.1554 29.1111C25.0264 29.2401 24.8516 29.3125 24.6692 29.3125C24.4869 29.3125 24.312 29.2401 24.1831 29.1111C24.0541 28.9822 23.9817 28.8073 23.9817 28.625V25.8097ZM24.9923 18.2102L20.1798 15.6433C20.0193 15.5613 19.8329 15.5456 19.6609 15.5997C19.4889 15.6538 19.3451 15.7732 19.2603 15.9324C19.1756 16.0915 19.1567 16.2776 19.2078 16.4505C19.2589 16.6234 19.3759 16.7693 19.5336 16.8567L23.552 19L25.013 18.2214L24.9923 18.2102ZM30.4923 15.6433L20.1798 10.1433C20.0804 10.0903 19.9694 10.0626 19.8567 10.0626C19.744 10.0626 19.6331 10.0903 19.5336 10.1433L9.22109 15.6433C9.1111 15.7019 9.01911 15.7893 8.95496 15.8962C8.89082 16.0031 8.85693 16.1254 8.85693 16.25C8.85693 16.3746 8.89082 16.4969 8.95496 16.6038C9.01911 16.7107 9.1111 16.7981 9.22109 16.8567L11.6067 18.1295V22.2905C11.606 22.6282 11.7303 22.9543 11.9556 23.2058C13.0814 24.4596 15.6037 26.5625 19.8567 26.5625C21.2669 26.5742 22.6666 26.3187 23.9817 25.8097V19.2295L23.552 19L19.8567 20.9705L12.6234 17.1094L11.0052 16.25L19.8567 11.5295L28.7083 16.25L27.0944 17.1094H27.0892L25.013 18.2214C25.1175 18.2818 25.2043 18.3686 25.2646 18.4731C25.325 18.5777 25.3567 18.6962 25.3567 18.817V25.1454C26.2532 24.6279 27.0634 23.9734 27.7578 23.2058C27.9831 22.9543 28.1074 22.6282 28.1067 22.2905V18.1295L30.4923 16.8567C30.6023 16.7981 30.6943 16.7107 30.7585 16.6038C30.8226 16.4969 30.8565 16.3746 30.8565 16.25C30.8565 16.1254 30.8226 16.0031 30.7585 15.8962C30.6943 15.7893 30.6023 15.7019 30.4923 15.6433Z" fill="url(#paint0_linear_816_6204)"/>
</g>
<defs>
<linearGradient id="paint0_linear_816_6204" x1="20.4281" y1="18.0001" x2="20.9281" y2="37.0001" gradientUnits="userSpaceOnUse">
<stop stop-color="#2EB75B"/>
<stop offset="1" stop-color="white"/>
</linearGradient>
<clipPath id="clip0_816_6204">
<rect width="22" height="22" fill="white" transform="translate(8.85693 8)"/>
</clipPath>
</defs>
</svg>
