<svg width="17" height="18" viewBox="0 0 17 18" fill="none" xmlns="http://www.w3.org/2000/svg">
<path d="M11.9375 8.375C11.9375 9.05487 11.7359 9.71948 11.3582 10.2848C10.9805 10.8501 10.4436 11.2907 9.81548 11.5508C9.18736 11.811 8.49619 11.8791 7.82938 11.7464C7.16257 11.6138 6.55007 11.2864 6.06932 10.8057C5.58858 10.3249 5.26119 9.71243 5.12855 9.04562C4.99592 8.37881 5.06399 7.68765 5.32417 7.05953C5.58434 6.4314 6.02494 5.89454 6.59023 5.51682C7.15552 5.13911 7.82013 4.9375 8.5 4.9375C9.41137 4.93853 10.2851 5.30103 10.9295 5.94546C11.574 6.58989 11.9365 7.46364 11.9375 8.375ZM16.625 9C16.625 10.607 16.1485 12.1779 15.2557 13.514C14.3629 14.8502 13.094 15.8916 11.6093 16.5065C10.1247 17.1215 8.49099 17.2824 6.9149 16.9689C5.3388 16.6554 3.89106 15.8815 2.75476 14.7452C1.61846 13.6089 0.844628 12.1612 0.531123 10.5851C0.217618 9.00901 0.37852 7.37535 0.993482 5.8907C1.60844 4.40605 2.64985 3.1371 3.986 2.24431C5.32214 1.35152 6.89303 0.875 8.5 0.875C10.6542 0.877275 12.7195 1.73403 14.2427 3.25727C15.766 4.78051 16.6227 6.84581 16.625 9ZM15.375 9C15.374 8.07464 15.1864 7.15898 14.8234 6.30778C14.4604 5.45658 13.9295 4.68734 13.2624 4.04604C12.5952 3.40475 11.8056 2.90457 10.9408 2.57544C10.0759 2.2463 9.15359 2.09496 8.22891 2.13047C4.54922 2.27266 1.61485 5.3375 1.625 9.01953C1.62853 10.6957 2.24674 12.3124 3.3625 13.5633C3.8169 12.9042 4.3941 12.339 5.0625 11.8984C5.11949 11.8608 5.18724 11.8429 5.25539 11.8474C5.32353 11.8519 5.38832 11.8786 5.43985 11.9234C6.28921 12.6581 7.37466 13.0624 8.49766 13.0624C9.62066 13.0624 10.7061 12.6581 11.5555 11.9234C11.607 11.8786 11.6718 11.8519 11.7399 11.8474C11.8081 11.8429 11.8758 11.8608 11.9328 11.8984C12.6021 12.3387 13.1801 12.904 13.6352 13.5633C14.7564 12.3078 15.3758 10.6833 15.375 9Z" fill="#AFAFAF"/>
</svg>
