<svg width="15" height="17" viewBox="0 0 15 17" fill="none" xmlns="http://www.w3.org/2000/svg">
<path d="M14.6922 4.93281L10.3172 0.557813C10.2591 0.499791 10.1902 0.453782 10.1143 0.422415C10.0384 0.391047 9.9571 0.374936 9.875 0.375H2.375C2.04348 0.375 1.72554 0.506696 1.49112 0.741117C1.2567 0.975537 1.125 1.29348 1.125 1.625V7.25C1.125 7.41576 1.19085 7.57473 1.30806 7.69194C1.42527 7.80915 1.58424 7.875 1.75 7.875C1.91576 7.875 2.07473 7.80915 2.19194 7.69194C2.30915 7.57473 2.375 7.41576 2.375 7.25V1.625H9.25V5.375C9.25 5.54076 9.31585 5.69973 9.43306 5.81694C9.55027 5.93415 9.70924 6 9.875 6H13.625V15.375H13C12.8342 15.375 12.6753 15.4408 12.5581 15.5581C12.4408 15.6753 12.375 15.8342 12.375 16C12.375 16.1658 12.4408 16.3247 12.5581 16.4419C12.6753 16.5592 12.8342 16.625 13 16.625H13.625C13.9565 16.625 14.2745 16.4933 14.5089 16.2589C14.7433 16.0245 14.875 15.7065 14.875 15.375V5.375C14.8751 5.2929 14.859 5.21159 14.8276 5.13572C14.7962 5.05985 14.7502 4.9909 14.6922 4.93281ZM10.5 2.50859L12.7414 4.75H10.5V2.50859ZM10.1781 9.82812C10.0805 9.77409 9.97015 9.74719 9.85859 9.75021C9.74704 9.75324 9.63833 9.78607 9.54375 9.84531L7.98516 10.8187C7.94168 10.5221 7.79302 10.2509 7.56628 10.0547C7.33954 9.85855 7.04984 9.75039 6.75 9.75H1.75C1.41848 9.75 1.10054 9.8817 0.866116 10.1161C0.631696 10.3505 0.5 10.6685 0.5 11V14.75C0.5 15.0815 0.631696 15.3995 0.866116 15.6339C1.10054 15.8683 1.41848 16 1.75 16H6.75C7.04984 15.9996 7.33954 15.8915 7.56628 15.6953C7.79302 15.4991 7.94168 15.2279 7.98516 14.9313L9.54375 15.9047C9.63833 15.9638 9.74702 15.9965 9.85852 15.9995C9.97002 16.0024 10.0803 15.9755 10.1778 15.9214C10.2754 15.8674 10.3567 15.7882 10.4134 15.6921C10.47 15.596 10.4999 15.4865 10.5 15.375V10.375C10.5001 10.2634 10.4702 10.1538 10.4136 10.0577C10.357 9.96151 10.2757 9.88225 10.1781 9.82812ZM6.75 14.75H1.75V11H6.75V14.75ZM9.25 14.2477L8 13.4664V12.2836L9.25 11.5023V14.2477Z" fill="#535966"/>
</svg>
