<svg width="24" height="25" viewBox="0 0 24 25" fill="none" xmlns="http://www.w3.org/2000/svg">
<g clip-path="url(#clip0_732_12506)">
<path d="M18 7.25V17.75C18 18.1478 17.842 18.5294 17.5607 18.8107C17.2794 19.092 16.8978 19.25 16.5 19.25H3C2.60218 19.25 2.22064 19.092 1.93934 18.8107C1.65804 18.5294 1.5 18.1478 1.5 17.75V7.25C1.5 6.85218 1.65804 6.47064 1.93934 6.18934C2.22064 5.90804 2.60218 5.75 3 5.75H16.5C16.8978 5.75 17.2794 5.90804 17.5607 6.18934C17.842 6.47064 18 6.85218 18 7.25ZM23.4375 7.27344C23.3317 7.24755 23.2216 7.24435 23.1145 7.26406C23.0073 7.28378 22.9056 7.32595 22.8159 7.38781L19.6669 9.48688C19.6155 9.52115 19.5734 9.56758 19.5443 9.62204C19.5152 9.6765 19.5 9.73731 19.5 9.79906V15.2009C19.5 15.2627 19.5152 15.3235 19.5443 15.378C19.5734 15.4324 19.6155 15.4789 19.6669 15.5131L22.8337 17.6244C22.9523 17.7034 23.0909 17.7471 23.2333 17.7503C23.3758 17.7534 23.5162 17.7159 23.6381 17.6422C23.7509 17.5705 23.8434 17.471 23.9068 17.3533C23.9702 17.2356 24.0022 17.1036 24 16.97V8C24.0001 7.83366 23.9449 7.67202 23.843 7.54049C23.7412 7.40897 23.5986 7.31502 23.4375 7.27344Z" fill="url(#paint0_linear_732_12506)"/>
</g>
<defs>
<linearGradient id="paint0_linear_732_12506" x1="-1.5" y1="19.5" x2="29.8604" y2="9.15662" gradientUnits="userSpaceOnUse">
<stop stop-color="#F88818"/>
<stop offset="1" stop-color="#F34BFB"/>
</linearGradient>
<clipPath id="clip0_732_12506">
<rect width="24" height="24" fill="white" transform="translate(0 0.5)"/>
</clipPath>
</defs>
</svg>
